<svg xmlns="http://www.w3.org/2000/svg" viewBox="0 0 362 321.95"><defs><style>.cls-1{fill:#ee303d;}</style></defs><g id="Layer_2" data-name="Layer 2"><g id="Layer_1-2" data-name="Layer 1"><path class="cls-1" d="M.12,160.69q0-71.47,0-142.94C.17,1,1.1.1,17.62.09q125-.12,250-.08c12,0,13.73,1.87,13.92,14.06.14,8.66-.09,17.33.23,26,.86,23.16,15.64,38.57,38.88,40.17,9.62.67,19.32.24,29,.44,10.43.23,11.9,1.77,12.32,12.42.07,1.67.07,3.34.07,5q0,102.46,0,204.92c0,18.65-.29,18.87-19.1,18.93q-22,.06-44-.07c-17.19-.12-17.6-.53-17.61-17.31q0-98,0-195.92c0-2.33.06-4.67,0-7-.44-13-7.64-20.33-20.6-20.71-6.33-.18-12.67-.18-19,.06-12.3.48-19.52,7.74-20.21,20.19-.2,3.65-.12,7.32-.13,11l-.06,107c0,4,.11,8-.13,12-.44,7.29-2.57,9.94-9.59,10q-30.48.39-61,0c-7.06-.11-9.18-2.83-9.68-10-.21-3-.11-6-.11-9q-.08-57-.13-114a77.39,77.39,0,0,0-.29-10c-1.3-9.64-8.3-16.47-18-17a193.61,193.61,0,0,0-23,0c-11,.67-17.82,7.77-18.33,18.64-.34,7.32-.19,14.66-.2,22q-.07,91-.13,181.93c0,2.66.1,5.34-.09,8-.52,7.23-2.65,9.95-9.71,10q-30.48.39-61-.11c-7.19-.12-9.19-2.65-9.76-10-.26-3.32-.14-6.66-.15-10V160.69Z"/></g></g></svg>