<svg xmlns="http://www.w3.org/2000/svg" viewBox="0 0 431.42 383.69"><defs><style>.cls-1{fill:#fff;}</style></defs><g id="Layer_2" data-name="Layer 2"><g id="Layer_1-2" data-name="Layer 1"><path class="cls-1" d="M.14,191.5q0-85.17,0-170.35C.2,1.24,1.31.12,21,.11Q169.94,0,318.88,0c14.26,0,16.36,2.23,16.59,16.76.16,10.32-.11,20.65.28,31,1,27.59,18.63,45.95,46.33,47.87,11.47.79,23,.28,34.54.52,12.43.27,14.18,2.11,14.68,14.8.08,2,.09,4,.09,6q0,122.1,0,244.21c0,22.23-.35,22.49-22.77,22.56q-26.2.09-52.42-.08c-20.49-.14-21-.63-21-20.62q0-116.76,0-233.5c0-2.78.07-5.56,0-8.34-.52-15.5-9.1-24.23-24.55-24.68-7.53-.22-15.1-.22-22.63.07-14.67.57-23.26,9.22-24.09,24.06-.25,4.35-.15,8.73-.15,13.1q0,63.74-.08,127.47c0,4.76.13,9.54-.16,14.29-.51,8.68-3.06,11.85-11.42,12q-36.33.45-72.68-.06C171,287.2,168.5,284,167.9,275.39c-.24-3.56-.12-7.15-.13-10.72l-.15-135.81a90.74,90.74,0,0,0-.35-11.89c-1.54-11.5-9.89-19.64-21.46-20.32a231.75,231.75,0,0,0-27.39,0c-13,.79-21.24,9.25-21.84,22.21-.4,8.72-.23,17.47-.24,26.21q-.09,108.41-.15,216.81c0,3.18.12,6.37-.11,9.53-.62,8.61-3.16,11.85-11.57,12q-36.33.48-72.68-.13C3.26,383.12.88,380.1.2,371.38c-.31-3.95-.17-7.93-.17-11.9q0-84,0-168Z"/></g></g></svg>