<!-- From https://upload.wikimedia.org/wikipedia/commons/3/3c/Osu%21Logo_%282019%29.svg -->
<?xml version="1.0" encoding="UTF-8"?>
<!-- Created with Inkscape (http://www.inkscape.org/) -->
<svg width="1024" height="1024" version="1.1" viewBox="0 0 1024 1024" xmlns="http://www.w3.org/2000/svg" xmlns:cc="http://creativecommons.org/ns#" xmlns:dc="http://purl.org/dc/elements/1.1/" xmlns:rdf="http://www.w3.org/1999/02/22-rdf-syntax-ns#">
 <metadata>
  <rdf:RDF>
   <cc:Work rdf:about="">
    <dc:format>image/svg+xml</dc:format>
    <dc:type rdf:resource="http://purl.org/dc/dcmitype/StillImage"/>
    <dc:title/>
   </cc:Work>
  </rdf:RDF>
 </metadata>
 <g transform="translate(1130.9 28.008)">
  <g transform="translate(-1193.8 30.416)">
   <g transform="translate(64.634 -64.634)">
    <path d="m482 965.37c-63.572-5.6516-115.18-19.637-167.5-45.391-72.552-35.713-133.39-89.373-177.98-156.98-41.112-62.333-65.946-134.32-72.047-208.83-9.9745-121.83 28.235-239.04 108.12-331.67 76.662-88.892 185.84-144.57 301.94-153.99 81.707-6.6268 161.61 8.2133 233.96 43.45 44.378 21.615 84.995 50.538 120.09 85.513 18.378 18.318 32.449 34.402 45.077 51.526 47.948 65.02 76.372 137.88 86.021 220.5 2.4704 21.153 2.4668 72.9-6e-3 94-3.1689 27.035-8.5609 55.006-14.599 75.735-18.001 61.795-46.861 116.06-88.522 166.45-11.5 13.909-40.965 43.374-54.874 54.874-60.377 49.92-127.82 82.278-202.1 96.961-30.696 6.0677-47.058 7.657-82.078 7.9725-17.05 0.15362-33.025 0.0993-35.5-0.12075zm76.5-17.755c11.919-1.3108 33.462-4.867 47.8-7.8904 5.4473-1.1487 4.8652-1.2151-9.5778-1.0924-8.4577 0.0718-18.493 0.63957-22.3 1.2616-33.322 5.4445-87.717 5.4356-124.42-0.0204-4.125-0.61315-14.12-1.1727-22.21-1.2433l-14.71-0.1285 7.7103 1.7197c13.269 2.9596 38.074 6.7283 54.21 8.2363 18.805 1.7574 64.006 1.3013 83.5-0.8426zm57.229-10.218c-0.33229-0.33229-1.1948-0.36781-1.9167-0.0789-0.79773 0.31922-0.56078 0.55618 0.60417 0.60416 1.0542 0.0434 1.6448-0.19293 1.3125-0.52522zm-390.25-103.36c0.32642-0.52815-6.9595-8.5173-16.191-17.754-41.737-41.759-72.723-87.508-94.341-139.29-2.4111-5.775-5.2038-11.85-6.2058-13.5l-1.822-3 0.66583 3c1.4874 6.7016 9.4004 25.123 18.9 44 15.666 31.13 34.661 60.262 55.422 85 9.7827 11.657 40.047 42.5 41.702 42.5 0.70186 0 1.5432-0.43213 1.8696-0.96028zm26.525-26.667c0-0.345-6.8756-7.4325-15.279-15.75-37.516-37.132-63.173-74.05-85.219-122.62-3.5159-7.7464-4.864-5.6246-1.4803 2.33 13.413 31.532 38.991 72.294 62.857 100.17 11.972 13.984 34.94 36.5 37.232 36.5 1.0387 0 1.8886-0.28227 1.8886-0.62727zm-152.92-171.48c-0.52695-1.3174-0.98662-1.8695-1.0215-1.227-0.08468 1.5606 1.0802 4.5215 1.5816 4.0201 0.21887-0.21887-0.0332-1.4758-0.56015-2.7931zm38.598-2.0827c-0.31922-0.79773-0.55618-0.56078-0.60416 0.60417-0.0434 1.0542 0.19292 1.6448 0.52522 1.3125 0.33229-0.33229 0.36781-1.1948 0.0789-1.9167zm-43.259-16.062c-0.32979-2.3375-1.6682-9.2-2.9743-15.25-6.7109-31.086-10.011-67.746-9.0922-101 0.80819-29.249 3.3073-49.607 9.7594-79.5 20.882-96.75 74.439-182.57 153.38-245.79 54.636-43.751 121.34-73.915 191.5-86.593 43.031-7.7764 90.698-8.6627 135-2.5101 92.969 12.911 179 56.28 246.17 124.09 8.0659 8.1434 15.105 14.806 15.643 14.806s1.2446-0.69553 1.5708-1.5456c1.1645-3.0346-34.113-37.249-56.379-54.681-47.442-37.142-96.28-61.59-158.5-79.346-5.5692-1.5893-30.447-6.7136-40.5-8.3423-36.539-5.9195-84.705-6.4992-124.4-1.4972-13.516 1.703-42.642 7.3846-52.596 10.26-51.296 14.817-87.352 31.221-129.19 58.776-105.27 69.34-176.11 184.16-190.87 309.38-4.0951 34.747-3.6815 79.422 1.0474 113.15 2.9557 21.08 9.1306 49.85 10.699 49.85 0.18106 0 0.05936-1.9125-0.27043-4.25zm35.259-11.938c-0.31922-0.79773-0.55618-0.56078-0.60416 0.60417-0.0434 1.0542 0.19292 1.6448 0.52522 1.3125 0.33229-0.33229 0.36781-1.1948 0.0789-1.9167zm-1.0208-5.0625c-0.27741-0.6875-0.50439-0.125-0.50439 1.25s0.22698 1.9375 0.50439 1.25 0.27741-1.8125 0-2.5zm171.11-0.47689c-2.048-0.21488-5.648-0.21785-8-7e-3 -2.352 0.21125-0.67643 0.38706 3.7236 0.39069 4.4 4e-3 6.3244-0.16921 4.2764-0.38408zm153.95-3e-3c-2.0748-0.21647-5.2248-0.21284-7 8e-3 -1.7752 0.22091-0.0777 0.39803 3.7723 0.39359 3.85-4e-3 5.3025-0.18518 3.2277-0.40166zm-170-0.87437c-0.33229-0.33229-1.1948-0.36781-1.9167-0.0789-0.79773 0.31922-0.56078 0.55618 0.60417 0.60416 1.0542 0.0434 1.6448-0.19293 1.3125-0.52522zm26 0c-0.33229-0.33229-1.1948-0.36781-1.9167-0.0789-0.79773 0.31922-0.56078 0.55618 0.60417 0.60416 1.0542 0.0434 1.6448-0.19293 1.3125-0.52522zm128.54-0.0518c-0.67703-0.27392-2.027-0.29059-3-0.0371-0.97297 0.25354-0.41903 0.47766 1.231 0.49804 1.65 0.0204 2.4461-0.18706 1.769-0.46099zm-17.54-2.9482c-0.33229-0.33229-1.1948-0.36781-1.9167-0.0789-0.79773 0.31922-0.56078 0.55618 0.60417 0.60416 1.0542 0.0434 1.6448-0.19293 1.3125-0.52522zm-159.73-2.7887c0-0.21616-0.69837-0.661-1.5519-0.98855-0.88992-0.34149-1.2913-0.17385-0.94098 0.39301 0.58726 0.95021 2.4929 1.4054 2.4929 0.59554zm146.24-3.107c-0.26285-1.375-0.65044-2.5-0.86133-2.5-0.21088 0-0.38342 1.125-0.38342 2.5s0.3876 2.5 0.86133 2.5 0.64627-1.125 0.38342-2.5zm-282.62-12.818c-3.7606-22.367-5.0142-39-4.9508-65.682 0.086-36.177 3.0132-59.682 11.843-95.101 27.043-108.47 101.21-201.36 201.48-252.33 38.584-19.614 72.134-30.735 113-37.457 26.419-4.3457 39.356-5.4064 66-5.4115 48.236-9e-3 90.213 7.1369 134.21 22.847 54.817 19.575 103.53 50.855 146.47 94.061 11.682 11.752 14.387 14.015 15.357 12.847 3.0925-3.7262-33.845-38.565-64.674-60.998-45.164-32.865-100.69-56.739-156.86-67.44-24.38-4.6448-43.378-6.2791-73.5-6.3226-28.639-0.0414-43.371 1.0452-66.5 4.9048-105.93 17.677-200.36 78.33-261.4 167.9-29.921 43.905-50.808 93.715-61.012 145.5-5.5336 28.082-8.3042 74.407-6.1903 103.5 1.802 24.799 6.6243 55.596 7.8578 50.182 0.22779-0.99964-0.28058-5.9496-1.1297-11zm283.05 6.13c-0.31922-0.79773-0.55618-0.56078-0.60416 0.60417-0.0434 1.0542 0.19293 1.6448 0.52522 1.3125s0.36781-1.1948 0.0789-1.9167zm-188.6-64.316c-0.50781-30.044 8.8746-55.361 25.92-69.94 15.646-13.382 36.624-19.183 60.19-16.643 28.82 3.1062 49.744 18.083 59.74 42.76 1.4945 3.6896 3.2939 6.9005 3.9986 7.1354 1.8508 0.61692 0.74457-2.7044-4.4329-13.31-7.8112-16-16.984-25.319-31.996-32.504-11.419-5.4661-21.291-7.4552-37-7.4552-20.376 0-34.082 3.9908-48.127 14.013-18.311 13.067-30.335 41.427-30.362 71.615-0.01 10.899 0.55538 15.599 1.7342 14.42 0.27368-0.27367 0.42462-4.8149 0.33543-10.092zm41.313-16.454c1.7304-19.558 8.2662-32.273 19.399-37.74 5.1691-2.5384 6.699-2.8004 16.208-2.7755 9.3732 0.0245 11.037 0.30965 15.5 2.6568 2.75 1.4461 6.2052 3.9087 7.6783 5.4725 2.8865 3.0643 6.8562 10.564 8.7755 16.579 1.6951 5.3126 3.527 6.1142 2.7286 1.1939-1.7727-10.924-11.865-23.601-21.366-26.838-6.5067-2.2171-21.322-2.1353-27.731 0.15302-13.671 4.8814-22.016 20.081-23.2 42.255-0.59933 11.225 0.99745 10.464 2.008-0.95676zm151.48-32.769c1.765-8.8974 5.2344-15.196 11.794-21.414 6.9649-6.6014 15.522-11.189 26.186-14.039 8.9992-2.4051 32.027-2.8946 43.644-0.92773 11.415 1.9328 22.615 5.2436 23.239 6.8697 1.2036 3.1365-4.1318 23.237-6.1679 23.237-0.29762 0-4.4854-1.1718-9.3062-2.604-11.683-3.471-30.171-4.4374-38.51-2.013-6.5086 1.8921-12.755 7.1149-12.755 10.665 0 2.0803 0.34836 1.9049 3.4772-1.7504 4.3435-5.0744 9.8953-7.3556 19.523-8.0217 9.0268-0.62461 18.452 0.73606 30.323 4.3776 10.157 3.1158 9.283 3.5942 13.039-7.1366 3.1198-8.9124 5.0728-18.494 3.9806-19.53-1.3135-1.2457-13.41-4.7327-22.208-6.4015-32.606-6.1853-64.324 0.33726-78.136 16.069-5.577 6.3518-10.957 19.403-10.987 26.655-0.0191 4.5317 1.6236 2.2173 2.8638-4.0347zm153.92-34.482c1.91-1.8987 31.246-1.8286 33.546 0.0801 1.325 1.0997 1.6537 3.2528 1.6537 10.833 0 7.1233 0.30885 9.3584 1.25 9.0461 0.87683-0.29098 1.3343-3.7409 1.5325-11.556l0.28249-11.141-2.7825-0.77224c-3.5379-0.9819-33.875-0.96942-37.532 0.0154l-2.75 0.74048v16.899c0 9.2945 0.3375 17.723 0.75 18.731 0.42121 1.0288 1.1884-5.4927 1.75-14.876 0.67083-11.208 1.4279-17.133 2.3-18z" fill="#fdf5f9"/>
    <path d="m480.94 959.93c-65.854-4.47-131.65-24.486-189.1-57.532-105.55-60.706-181.97-161.66-210.75-278.39-13.407-54.381-16.601-113.76-9.0214-167.74 9.1403-65.105 33.132-129.02 68.785-183.26 5.0692-7.7109 19.786-27.912 22.91-31.448 4.7491-5.3748 3.5559-0.74073-1.4677 5.7003-4.9511 6.3482-10.296 14.262-10.296 15.246 0 0.29772-1.2375 2.4449-2.75 4.7714s-2.9845 4.6801-3.2712 5.2301c-0.28666 0.55-1.6359 2.8-2.9984 5s-2.5342 4.3375-2.6038 4.75c-0.0696 0.4125-0.18283 1.2266-0.25158 1.809-0.0687 0.58246-0.64453 0.73793-1.2795 0.34549-0.67732-0.41861-0.88448-0.27661-0.5012 0.34355 0.35932 0.58139-2.9279 7.7517-7.3049 15.934-27.134 50.725-43.64 103.39-50.561 161.32-2.2481 18.817-3.0355 58.772-1.5577 79.039 6.8195 93.524 42.387 181.94 101.96 253.46 9.1019 10.927 15.417 17.865 28.296 31.085 5.4035 5.5469 9.8246 10.609 9.8246 11.25s0.3704 1.1648 0.8231 1.1648c0.45271 0 3.2652 2.2961 6.25 5.1025 41.221 38.757 99.208 71.307 159.1 89.307 69.713 20.952 146.57 24.356 217 9.6127 70.448-14.746 141.08-49.164 188.83-92.013 3.025-2.7147 7.6649-6.7524 10.311-8.9727s4.36-4.037 3.809-4.037-1.2799 0.45-1.6198 1-2.2082 1-4.1516 1c-2.514 0-4.8774 1.0293-8.191 3.5672-50.722 38.849-92.655 61.844-143.15 78.5-78.352 25.844-164.68 28.807-243.01 8.3397-58.945-15.403-108.16-39.645-161.83-79.707-7.8832-5.8846-14.746-10.699-15.25-10.699s-0.91687-1.4698-0.91687-3.2663c0-2.8396 1.4696-4.7107 11.25-14.323 6.1875-6.0813 12.488-11.577 14-12.212 4.4524-1.8706 4.3176-2.0898-8.0762-13.142-22.51-20.073-49.773-53.462-67.35-82.483-37.589-62.062-55.265-126.13-55.202-200.07 0.0119-13.75 0.57596-30.175 1.2535-36.5 6.3788-59.545 24.048-113.26 53.138-161.55 6.9014-11.456 19.638-29.956 22.804-33.122 0.8309-0.8309 4.0248-4.7896 7.0975-8.7971 10.43-13.603 31.898-36.254 46.268-48.816 23.584-20.618 36.54-30.154 60.816-44.759 47.721-28.711 98.451-45.885 157-53.149 14.079-1.7468 70.838-1.7536 85-0.0101 79.891 9.8351 148.13 39.441 209.56 90.92 13.981 11.716 42.831 41.001 52.741 53.537 5.2431 6.632 7.4964 8.75 9.3088 8.75 1.3152 0 2.3913-0.27938 2.3913-0.62085 0-0.51924-5.4058-7.7142-16.933-22.537-3.7547-4.8283-2.913-6.531 9.1985-18.608 6.1961-6.1786 12.006-11.234 12.911-11.234 2.511 0 21.703 23.051 36.493 43.831 4.1134 5.7793 6.8251 8.6796 8.1352 8.7012 1.0808 0.0178 2.7027 0.64439 3.6041 1.3925 3.2054 2.6603 2.2792 0.45725-3.5264-8.3875-3.2356-4.9295-5.883-9.3278-5.883-9.7741 0-1.5976-16.06-23.637-22.053-30.263-3.6873-4.0771-5.5417-7.5-4.0631-7.5 0.4516 0 2.934 2.6893 5.5164 5.9763 2.5824 3.287 5.2955 6.5765 6.029 7.3101 3.0438 3.0438 17.863 23.4 25.746 35.365 16.21 24.605 29.994 51.008 41.161 78.849 8.0542 20.078 17.94 52.552 21.157 69.5 0.67862 3.575 1.7191 8.3 2.3121 10.5 1.4334 5.3172 4.774 28.067 6.3142 43 1.8514 17.951 1.5739 67.583-0.48261 86.3-10.22 93.018-45.475 174.78-105.51 244.7-26.158 30.465-56.954 57.628-90.628 79.935-19.779 13.103-27.616 17.647-48.048 27.859-71.058 35.516-149.32 51.076-229.51 45.632zm79.057-55.332c61.546-8.1132 119.89-29.473 163.7-59.928 3.9907-2.7743 7.1364-5.1636 6.9906-5.3094-0.14587-0.14586-1.8232-0.35557-3.7275-0.46602-2.6338-0.15276-5.4962 1.0472-11.962 5.0151-12.931 7.9349-41.677 21.976-59.011 28.825-92.549 36.565-195.05 36.432-287.99-0.37219-16.61-6.5776-53.366-24.761-61.848-30.598-3.3241-2.2871-5.5192-3.0772-8.0712-2.9053-1.9279 0.12984-3.6268 0.35758-3.7753 0.50608-1.0268 1.0268 22.27 15.77 38.195 24.17 44.372 23.408 95.012 37.914 149.5 42.825 11.606 1.046 66.024-0.18327 78-1.7619zm-241.15-304.6c26.755-6.4303 45.351-25.389 52.887-53.92 3.462-13.107 4.2854-37.087 1.7535-51.07-0.94606-5.225-2.1047-11.75-2.5747-14.5-1.1134-6.514-7.6419-19.502-13.423-26.703-8.5857-10.696-23.362-19.942-38.373-24.012-11.059-2.9984-36.257-2.9755-47.404 0.0432-21.464 5.8122-38.646 20.514-47.945 41.023-7.5999 16.761-10.955 44.415-7.3899 60.902 3.3069 15.292 5.7345 22.895 10.272 32.172 3.738 7.6416 6.1469 10.977 12.73 17.625 6.8136 6.8807 9.6475 8.931 17.62 12.748 8.5625 4.0992 18.239 6.8956 28 8.0915 7.1128 0.87145 25.73-0.44801 33.847-2.3989zm-35.232-32.629c-6.8495-2.1032-14.577-9.9797-17.553-17.892-3.9672-10.547-5.3784-20.701-4.7212-33.969 1.7547-35.429 10.852-50.089 31.836-51.304 5.637-0.32632 9.1906 0.0212 13.018 1.273 9.8183 3.2114 13.931 7.5953 19.34 20.616 7.2736 17.508 6.7134 47.47-1.218 65.143-3.3707 7.511-10.588 14.181-17.596 16.262-6.3678 1.891-16.715 1.8331-23.106-0.12932zm207.48 1.0736c38.586-38.771 36.374-35.508 31.214-46.048-3.4632-7.0728-11.73-14.794-19.715-18.415-3.5076-1.5904-13.29-4.9933-21.738-7.5619-23.888-7.263-27.805-9.7807-28.634-18.404-0.46527-4.8421-0.33164-5.1633 3.8958-9.364 3.8025-3.7784 5.2761-4.5176 11.216-5.626 8.808-1.6435 18.803-0.74618 33.614 3.0179 13.718 3.4862 13.608 3.5358 17.352-7.8341 3.7604-11.42 5.1697-20.157 3.5166-21.801-0.72608-0.72201-6.5335-2.6552-12.905-4.2959-36.569-9.4165-68.93-5.093-86.983 11.621-11.071 10.25-15.425 21.047-14.428 35.776 0.76838 11.343 2.1483 17.759 5.0778 23.608 4.4534 8.8916 16.229 17.043 31.418 21.75 3.575 1.1078 11.675 3.6088 18 5.5579 18.419 5.676 22.416 9.324 21.741 19.845-0.31522 4.9114-0.85901 6.2659-3.6869 9.1835-1.8244 1.8823-5.6203 4.4648-8.4354 5.7389-4.6945 2.1247-6.4429 2.3105-21.118 2.2449-14.63-0.0655-16.771-0.31255-25-2.885-12.765-3.9902-12.556-4.0259-15.212 2.6089-2.6942 6.7312-5.026 15.393-5.8831 21.854l-0.62205 4.6893 3.8587 1.5339c10.257 4.0774 28.508 7.3221 42.958 7.6372l6.0993 0.13302zm109.59-108.43c0.64242 0 2.1007-1.1857 3.2406-2.6349 1.8212-2.3153 2.0726-4.0161 2.0726-14.025v-11.39l-2.75-1.1548c-3.7794-1.5871-37.775-1.5633-41.576 0.029l-2.8264 1.1838 0.59893 19.246c0.32941 10.585 0.8392 25.516 1.1329 33.18l0.53394 13.934 19.203-19.184c10.562-10.551 19.729-19.184 20.371-19.184zm-433.69-222.43c0-0.23572 0.57138-1.0232 1.2697-1.75 0.69835-0.72679 3.9112-4.4714 7.1398-8.3214s6.2571-7.15 6.7303-7.3333c1.7378-0.67341 0.79753 1.8555-1.1398 3.0654-1.1 0.68696-2 1.8054-2 2.4854s-1.125 1.9735-2.5 2.8745c-1.375 0.90093-2.5142 2.1488-2.5316 2.773-0.0672 2.4134-6.9684 8.5599-6.9684 6.2064zm675.74-14.696c-0.95792-0.53608-1.7417-1.4023-1.7417-1.925 0-1.6076 2.7476-1.0505 3.4166 0.69282 0.82292 2.1445 0.44809 2.4202-1.6749 1.2322zm-656.04-8.2796c0.98817-1.3224 2.535-2.8705 3.4374-3.4402 2.5459-1.6074 1.1364 2.537-1.4879 4.3751-3.1251 2.1889-3.9782 1.7798-1.9495-0.93489zm649.52 0.36494c-1.2497-0.50193-2.5428-1.6178-2.8735-2.4797-1.0584-2.7582 0.20971-2.5454 3.1557 0.52953 3.1058 3.2417 3.0963 3.3071-0.28216 1.9502zm-623.73-25.961c0.99549-1.1 2.2061-2 2.6902-2s0.39853 0.9-0.19017 2-1.7993 2-2.6902 2c-1.4297 0-1.4074-0.23475 0.19017-2zm598.48 0.47583c-1.9324-2.3284-0.55355-2.7672 1.5145-0.48196 0.99854 1.1034 1.3509 2.0061 0.78298 2.0061s-1.6018-0.68587-2.2975-1.5242zm-8.3133-7.1425c-0.36667-0.36666-0.66667-1.1317-0.66667-1.7 0-0.6266 0.46577-0.56756 1.1833 0.15 0.65084 0.65084 0.95084 1.4158 0.66667 1.7-0.28417 0.28417-0.81667 0.21667-1.1833-0.15zm-231.07-105.18c-0.34605-0.55992-0.1419-1.3192 0.45366-1.6873 1.5375-0.95022 2.5295 0.35135 1.246 1.6348-0.71818 0.71818-1.2775 0.73544-1.6996 0.05243zm-120.8-1.3562c0.93333-0.93333 1.4667-0.93333 2.4 0s0.66667 1.2-1.2 1.2-2.1333-0.26667-1.2-1.2zm6.8395 0.50615c-1.1262-1.1262-0.68589-2.3061 0.86052-2.3061 0.825 0 1.5 0.42344 1.5 0.94098 0 1.261-1.5616 2.1641-2.3605 1.3652zm107.36-0.72281c0-0.87083 0.7125-1.5833 1.5833-1.5833 0.87084 0 1.4052 0.53438 1.1875 1.1875-0.61807 1.8542-2.7708 2.1618-2.7708 0.39583zm-81.25-2.2456c0.6875-0.27741 1.8125-0.27741 2.5 0 0.6875 0.27741 0.125 0.50439-1.25 0.50439s-1.9375-0.22697-1.25-0.50439zm55 0c0.6875-0.27741 1.8125-0.27741 2.5 0 0.6875 0.27741 0.125 0.50439-1.25 0.50439s-1.9375-0.22697-1.25-0.50439zm-31.75-1.3867c3.025-0.44279 7.975-0.44406 11-0.0028 4.7182 0.68822 3.9364 0.80266-5.5 0.80507-9.4387 0.0024-10.219-0.11145-5.5-0.80226z" fill="#fde9f2"/>
    <path d="m472.5 958.94c-94.174-9.3564-178.76-45.11-248.77-105.16-89.312-76.599-143.96-183.34-153.78-300.34-1.8538-22.096-0.77665-73.23 1.9263-91.442 6.0269-40.608 12.81-68.433 24.378-100 5.8202-15.882 16.89-40.07 17.501-38.238 0.22964 0.68892-0.48238 3.1618-1.5823 5.4954-5.9589 12.643-7.0388 15.442-15.313 39.701-7.2473 21.249-13.189 43.74-16.39 62.041-0.33668 1.925-1.0175 5.75-1.5129 8.5s-1.153 7.25-1.4612 10c-0.30828 2.75-0.7457 6.35-0.97204 8-1.9347 14.103-2.5033 24.935-2.8349 54-0.14576 12.776 0.14379 23.558 0.6514 24.255 0.50259 0.69034 0.69785 3.5026 0.43392 6.2494-0.33336 3.4693-0.06671 5.3372 0.87327 6.1173 1.5417 1.2795 1.7785 4.0213 0.46875 5.4281-1.1279 1.2115 0.7427 15.72 2.1399 16.598 0.56724 0.35621 0.77038 1.6456 0.45143 2.8652-0.31895 1.2197-0.21372 2.9532 0.23385 3.8524 1.6762 3.3674 3.0076 8.8074 3.4594 14.135 0.25652 3.025 1.3964 8.3711 2.5331 11.88 1.1367 3.5092 2.0667 6.9604 2.0667 7.6694s1.5361 6.1629 3.4137 12.12c1.8775 5.9568 5.4566 17.356 7.9536 25.331 2.497 7.975 6.8426 20.575 9.6569 28s5.55 15.243 6.0792 17.374c1.5138 6.0939 11.174 26.758 17.98 38.461 39.715 68.292 94.402 122.87 162.08 161.76 56.02 32.189 122.51 52.564 184.33 56.488 51.742 3.2844 100.02-1.0381 146-13.073 110.23-28.849 204.1-99.232 263.92-197.87 12.297-20.279 25.889-49.843 20.384-44.339-0.66 0.66-2.1548 1.2-3.3217 1.2-1.5626 0-2.6886 1.2518-4.273 4.75-1.1832 2.6125-3.6259 7.0932-5.4283 9.9571-1.8024 2.8639-5.527 9.132-8.277 13.929-32.17 56.117-83.519 110.42-138.57 146.54-57.242 37.56-119.69 60.087-189.93 68.516-18.168 2.18-70.283 2.4788-88.5 0.50742-80.145-8.6732-153.36-37.151-216-84.017-14.153-10.589-26.5-21.073-26.5-22.501 0-1.8437 21.292-22.683 23.176-22.683 0.90365 0 4.9463 2.7628 8.9837 6.1395 50.099 41.901 110.01 70.55 174.34 83.367 29.99 5.9751 41.157 6.9734 78 6.9734 35.389 0 47.09-0.96419 74-6.0982 107.87-20.58 202.49-85.562 259.73-178.39 3.5628-5.777 6.8061-11.538 7.2075-12.803 0.40134-1.2645 2.2276-4.9492 4.0585-8.1883l3.3288-5.8892-2.6629-0.30802c-2.2709-0.26268-3.0872 0.42803-5.5453 4.692-4.6774 8.1137-19.426 30.101-27.115 40.422-26.683 35.82-60.446 68.105-97.033 92.786-43.395 29.274-97.399 50.975-148.62 59.723-27.813 4.7497-32.05 5.0687-67.345 5.0687-35.322 0-39.484-0.31395-67.5-5.0917-99.076-16.896-189.46-74.201-250.11-158.57-18.395-25.589-33.527-51.966-44.353-77.311-10.344-24.217-21.709-64.163-21.386-75.167 0.09449-3.2211-0.56681-11.032-1.4696-17.357-7.6872-53.86-1.83-117.56 15.751-171.31 44.312-135.46 159.69-236.4 299.57-262.09 24.469-4.4934 41.408-5.9371 69.5-5.9234 28.13 0.0137 45.382 1.4866 69.5 5.9334 148.98 27.468 269 139.82 306.48 286.89 7.86 30.842 11.593 60.964 11.648 94 0.0337 19.98-1.3552 45.55-2.7839 51.25-0.40408 1.6122-0.12209 2.25 0.99478 2.25 0.8573 0 1.9921 0.77433 2.5217 1.7207 0.79416 1.4191 1.0543 1.1123 1.4842-1.75 0.28665-1.9089 1.3256-8.6457 2.3088-14.971 2.2392-14.405 2.5442-60.855 0.52525-80-8.0756-76.58-36.978-147.38-84.088-206-5.5255-6.875-10.057-13.183-10.07-14.017-0.0277-1.7569 20.925-22.983 22.687-22.983 1.539 0 16.455 17.973 27.551 33.2 25.307 34.724 47.589 78.533 61.337 120.6 8.0278 24.561 14.684 55.033 17.909 81.983 1.9597 16.378 3.7127 53.406 3.0165 63.72-0.29698 4.4-0.75884 13.142-1.0263 19.426-0.45468 10.682-1.8012 24.326-3.1407 31.824-0.50448 2.8238-0.30374 3.25 1.5307 3.25 1.3417 0 2.1135 0.63786 2.1174 1.75 4e-3 1.1772 0.49335 0.81587 1.4947-1.1041 0.8187-1.5697 1.2272-3.277 0.90775-3.7938s-0.0389-1.5926 0.62333-2.3906c0.66227-0.79798 0.94484-2.4424 0.62795-3.6542-0.3169-1.2118-0.16522-2.6985 0.33707-3.3037 1.1289-1.3603 1.5016-7.4431 0.58767-9.5935-0.38902-0.91538-0.0438-2.1142 0.81383-2.8259 1.1806-0.97983 1.2596-1.7406 0.3811-3.6688-0.83731-1.8377-0.79558-3.017 0.17063-4.8224 1.5217-2.8433 1.7439-6.1911 2.3624-35.593 0.27925-13.275 0.0891-22.974-0.46383-23.656-0.51542-0.63565-0.876-3.7856-0.80129-7 0.14426-6.2075-0.51382-15.925-1.5808-23.344-0.35596-2.475-0.81588-5.85-1.022-7.5-0.20615-1.65-0.58298-4.35-0.83741-6s-0.76561-5.475-1.136-8.5c-1.8384-15.016-10.594-48.734-18.826-72.5-4.2709-12.33-8.3572-22.741-12.952-33-2.4634-5.5-4.2777-10.212-4.0316-10.471 0.68442-0.72065 1.8311 1.432 7.9747 14.971 16.641 36.672 27.103 72.999 34.272 119 3.1698 20.339 4.074 33.977 4.0834 61.589 0.0189 55.444-8.7209 105.09-27.178 154.4-22.425 59.899-54.386 110.09-99.255 155.88-70.89 72.337-158.71 116.23-260.56 130.22-12.907 1.7733-21.522 2.1817-51.5 2.4412-19.8 0.17141-40.05-0.0907-45-0.58251zm-158.97-356.48c16.943-2.9546 30.038-9.9344 41.336-22.033 8.1406-8.7169 14.914-21.457 18.041-33.935 4.1575-16.588 4.596-38.21 1.1355-55.998-0.53497-2.75-0.88013-7.25-0.76702-10 0.16829-4.0915-0.55242-6.5444-3.9666-13.5-9.9238-20.217-27.149-34.1-49.812-40.146-11.59-3.0919-36.488-3.0806-48 0.0217-22.885 6.1676-38.771 19.009-49.017 39.624-6.876 13.834-9.5532 25.703-10.215 45.285-0.51919 15.364-0.43592 16.411 1.4716 18.5 1.1219 1.2288 2.3408 4.4404 2.7382 7.2147 0.94223 6.5773 5.1203 19.732 8.2582 26 10.713 21.401 29.883 35.391 54.095 39.477 7.9982 1.3497 25.512 1.0921 34.702-0.51048zm-26.815-35.494c-12.466-3.1448-19.911-13.368-23.287-31.972-1.8354-10.116-1.8358-21.976-7.1e-4 -24.596 0.78642-1.1228 1.7439-4.9354 2.1276-8.4725 1.7163-15.818 7.7488-27.383 16.8-32.208 6.1414-3.2739 20.176-3.1906 26.982 0.16003 5.4221 2.6693 9.6786 7.8617 12.25 14.943 0.93343 2.5708 2.5949 5.4717 3.6921 6.4465 2.7691 2.4601 3.6241 8.0186 3.6747 23.89 0.0884 27.747-6.3944 44.163-19.778 50.083-5.027 2.2237-16.88 3.1349-22.461 1.7268zm173.75 34.278c1.2886-1.5125 16.819-17.349 34.511-35.193 30.626-30.887 32.14-32.59 31.584-35.5-1.1056-5.7855-5.4867-13.573-10.4-18.486-6.6544-6.6544-15.473-10.864-35.666-17.027-9.35-2.8533-18.851-6.2633-21.113-7.5777-4.5912-2.6678-6.694-6.5694-6.2094-11.521 0.43726-4.4674 7.227-8.6738 16.274-10.082 6.5906-1.0261 8.0497-0.91586 33.528 2.532 13.42 1.816 14.715 1.2666 17.815-7.5594 2.6089-7.4271 5.1628-18.998 5.1875-23.503 0.0168-3.0681-0.22847-3.2497-7.7851-5.7663-4.2914-1.4292-12.305-3.4714-17.809-4.5382-50.378-9.7658-89.285 6.8773-95.612 40.9-0.94916 5.1039-0.87198 6.5188 0.50711 9.2964 0.89467 1.802 1.8189 6.4263 2.0539 10.276 0.6131 10.045 3.7907 17.585 10.049 23.843 7.1776 7.1776 16.281 11.628 36.113 17.655 20.112 6.1123 25.737 8.8729 28.062 13.774 1.9895 4.1926 1.5348 10.624-1.0278 14.535-0.964 1.4712-4.6437 4.0982-8.1771 5.8377-5.5511 2.7328-7.7814 3.228-16.408 3.6434-11.775 0.56701-22.102-0.90392-33.947-4.8355l-8.5024-2.8219-1.731 2.0219c-2.8832 3.3677-7.9417 20.654-8.1138 27.727l-0.15519 6.3799 4 1.4164c13.145 4.6549 26.576 7.0249 40.814 7.2018 9.5384 0.11852 9.8795 0.0448 12.157-2.6281zm481.19-5.5c-0.27741-0.6875-0.50439-0.125-0.50439 1.25s0.22698 1.9375 0.50439 1.25 0.27741-1.8125 0-2.5zm-140.14-160.63c0.88748-39.26 1.2445-71.75 0.7934-72.201-0.45112-0.45112-7.0431-1.3565-14.649-2.012-10.667-0.91934-16.787-0.92155-26.769-0.01-7.1172 0.65015-13.618 1.4423-14.447 1.7603-1.2395 0.47564-1.4142 2.1094-0.98487 9.2108 0.28705 4.7479 0.98567 32.033 1.5525 60.633s1.2796 55.231 1.5839 59.18c0.52678 6.8355 0.69332 7.2284 3.4746 8.198l2.9213 1.0187-0.04223-18.198c-0.02323-10.009-0.44253-39.123-0.93178-64.698-0.77216-40.363-0.6958-46.698 0.57852-48 1.1998-1.2259 4.8332-1.5 19.882-1.5 12.341 0 18.786 0.37219 19.542 1.1285 0.83662 0.83687 0.84946 18.437 0.0497 68.101-0.59322 36.835-1.0786 68.825-1.0786 71.09 0 3.4721 0.43094 4.3454 2.75 5.5728l2.75 1.4555 0.70547-4.6736c0.38801-2.5704 1.4316-36.795 2.3191-76.054zm-221.95 45.881c10.335-10.464 19.563-19 20.539-19 1.4054 0 1.8359 0.98427 2.0775 4.75 0.29266 4.5609 0.43497 4.7625 3.5745 5.0648l3.2697 0.31482-0.26969-21.788-0.26968-21.788-4.5-0.91922c-5.8333-1.1916-37.166-1.1917-43-1.1e-4l-4.5 0.91912-0.27067 19.583c-0.22854 16.534-0.0339 19.78 1.25 20.845 1.2304 1.0211 1.5207 3.9751 1.5207 15.473 0 12.211 0.33727 15.544 1.5726 15.544 0.13163 0 8.6842-8.55 19.006-19zm130.19-22.723-0.26488-29.723-4.5-0.91948c-5.8345-1.1922-37.167-1.1919-43 3.5e-4l-4.5 0.91982v49.945l6.3888 0.61843 0.30559-21.478c0.16808-11.813 0.64733-21.819 1.065-22.235 2.0318-2.0261 34.394-2.0914 36.41-0.0736 0.45682 0.45735 0.96569 12.145 1.1308 25.972 0.31568 26.433 0.35597 26.65 4.9646 26.681l2.2649 0.01535zm-594.46-139.28c0.62281-1.65 1.4953-3 1.9388-3 0.44354 0 0.10833 1.35-0.74492 3s-1.7257 3-1.9388 3 0.12212-1.35 0.74492-3zm792.36-0.66667c-0.36667-0.36666-0.65299-1.3792-0.63626-2.25 0.025-1.3003 0.22011-1.2571 1.0917 0.24167 1.0768 1.8517 0.76461 3.2284-0.4554 2.0083zm-6.9354-13.479c-0.95217-1.6591-1.7113-3.5425-1.687-4.1854 0.0243-0.64293 0.95684 0.561 2.0723 2.6754 2.4169 4.5814 2.097 5.8352-0.38528 1.51zm-777.68-0.3544c-0.0245-1.4859 1.7605-4.0257 2.3882-3.398 0.29923 0.29922-0.11199 1.4112-0.91382 2.471-0.80182 1.0598-1.4653 1.477-1.4744 0.927zm772.58-9.0387c-0.96498-2.5147-0.68031-3.1636 0.49853-1.1363 0.58369 1.0038 0.8506 2.0357 0.59313 2.2931s-0.74872-0.26309-1.0917-1.1568zm-438.11-220.48c0.34546-0.55897 1.047-0.75741 1.559-0.44098 1.387 0.85724 1.1284 1.4573-0.62812 1.4573-0.85746 0-1.2764-0.45734-0.9309-1.0163zm108 0c0.34546-0.55897 1.047-0.75741 1.559-0.44098 1.387 0.85724 1.1284 1.4573-0.62812 1.4573-0.85746 0-1.2764-0.45734-0.9309-1.0163z" fill="#fdd6e8"/>
    <path d="m472.5 958.94c-94.174-9.3564-178.76-45.11-248.77-105.16-89.312-76.599-143.96-183.34-153.78-300.34-1.8538-22.096-0.77665-73.23 1.9263-91.442 6.0269-40.608 12.81-68.433 24.378-100 5.8202-15.882 16.89-40.07 17.501-38.238 0.22964 0.68892-0.48238 3.1618-1.5823 5.4954-5.9589 12.643-7.0388 15.442-15.313 39.701-7.2473 21.249-13.189 43.74-16.39 62.041-0.33668 1.925-1.0175 5.75-1.5129 8.5s-1.153 7.25-1.4612 10c-0.30828 2.75-0.7457 6.35-0.97204 8-2.0333 14.822-2.5702 26.041-2.6085 54.5-0.04323 32.138 1.3495 49.502 6.1764 77 5.6847 32.386 15.159 66.316 23.873 85.5 0.49967 1.1 3.1615 7.175 5.9151 13.5 29.884 68.642 77.968 129.57 138.37 175.33 51.925 39.338 112.25 66.399 177.4 79.586 43.466 8.7973 98.695 10.723 142.36 4.9641 76.936-10.148 145.12-37.507 206-82.665 70.538-52.318 122.26-122.77 153.97-209.71 11.308-31.011 20.545-78.027 22.552-114.8 0.95544-17.499 1.1661-50.328 0.32956-51.359-0.51542-0.63565-0.876-3.7856-0.80129-7 0.14426-6.2075-0.51382-15.925-1.5808-23.344-0.35596-2.475-0.81588-5.85-1.022-7.5-0.20615-1.65-0.58298-4.35-0.83741-6s-0.76561-5.475-1.136-8.5c-1.8384-15.016-10.594-48.734-18.826-72.5-4.2709-12.33-8.3572-22.741-12.952-33-2.4634-5.5-4.2777-10.212-4.0316-10.471 0.68442-0.72065 1.8311 1.432 7.9747 14.971 16.641 36.672 27.103 72.999 34.272 119 3.1698 20.339 4.074 33.977 4.0834 61.589 0.0189 55.444-8.7209 105.09-27.178 154.4-22.425 59.899-54.386 110.09-99.255 155.88-70.89 72.337-158.71 116.23-260.56 130.22-12.907 1.7733-21.522 2.1817-51.5 2.4412-19.8 0.17141-40.05-0.0907-45-0.58251zm-2-19.487c-70.936-7.2786-138.21-31.403-196.53-70.476-19.922-13.347-44.97-33.089-44.97-35.444 0-0.63324 4.9518-6.031 11.004-11.995 10.16-10.012 11.138-10.726 12.75-9.3055 7.1646 6.3123 26.797 21.302 36.697 28.02 54.463 36.955 111.64 58.217 178.55 66.392 18.097 2.2112 67.435 2.5008 85 0.49887 93.21-10.623 173.63-48.916 238.59-113.61 56.902-56.668 95.405-129.68 108.39-205.54 1.1771-6.875 2.5714-13.626 3.0983-15.002 3.7573-9.811 6.2009-66.796 3.9984-93.244-5.7374-68.894-27.338-130.89-65.595-188.25-7.6791-11.515-22.175-30.719-29.247-38.746-1.4202-1.612-0.70639-2.59 9.3055-12.75 5.964-6.0522 11.384-11.004 12.044-11.004 1.5328 0 15.351 16.685 26.677 32.211 24.846 34.061 47.019 77.393 60.528 118.29 8.7233 26.409 16.048 60.796 19.385 91 1.7359 15.715 1.7763 71.253 0.0623 85.5-4.6936 39.013-8.8301 58.579-18.71 88.5-18.529 56.114-47.292 106.24-86.501 150.74-70.323 79.814-165.23 129.82-272.03 143.33-17.909 2.265-73.844 2.8016-92.5 0.88724zm19.5-41.036c-1.925-0.21952-9.125-0.88214-16-1.4725-26.19-2.2489-57.539-9.0188-85.758-18.519-56.666-19.078-105.66-49.706-149.32-93.355-31.569-31.556-54.172-62.633-73.22-100.67-33.563-67.019-46.336-138.72-38.106-213.91 11.945-109.14 70.77-208.84 161.4-273.54 21.709-15.499 57.394-34.853 82.012-44.479 30.831-12.056 64.058-20.258 100-24.687 14.113-1.739 68.96-1.733 83 9e-3 49.544 6.1472 90.722 18.469 132.5 39.649 38.535 19.536 68.714 41.551 100.03 72.968 31.38 31.484 55.48 65.438 74.49 104.95 32.195 66.916 43.581 134.32 36.018 213.23-5.4744 57.124-30.441 122.44-66.282 173.4-26.519 37.708-60.813 72.131-96.952 97.318-53.263 37.122-112.38 59.419-178.3 67.254-12.171 1.4464-57.745 2.732-65.5 1.8476zm-171.65-294.01c3.9346-0.86317 11.766-3.7916 17.403-6.5076 22.987-11.075 36.578-31.658 40.862-61.886 1.8285-12.9 1.7246-25.167-0.32085-37.889-0.93988-5.8456-1.621-12.734-1.5135-15.308 0.39754-9.5241-9.5368-27.753-20.816-38.195-17.041-15.777-40.759-22.936-68.127-20.562-18.219 1.58-31.118 6.4982-44.101 16.815-20.473 16.269-31.585 44.701-30.583 78.247 0.27996 9.3699 0.69293 12.046 2.0986 13.599 0.9625 1.0634 1.7503 3.248 1.7507 4.8547 2e-3 9.6122 8.5626 30.837 16.838 41.749 10.356 13.655 30.013 24.18 49.84 26.686 9.1263 1.1531 27.833 0.33557 36.667-1.6026zm-35.846-41.314c-5.2022-2.4175-10.882-8.4204-13.429-14.193-4.6831-10.613-7.3963-31.78-4.7733-37.239 0.83632-1.7407 2.0286-7.131 2.6495-11.978 1.569-12.25 4.3353-19.064 10.066-24.794 5.339-5.339 9.4727-6.8783 18.494-6.8866 13.642-0.0127 20.376 4.7759 25.928 18.436 1.2442 3.0613 3.1178 6.5117 4.1635 7.6676 1.7246 1.9062 1.898 3.7889 1.8649 20.246-0.0371 18.437-0.39858 20.98-4.6795 32.92-2.3762 6.6275-8.1716 13.059-14.284 15.852-5.6341 2.5746-20.431 2.557-26-0.0309zm197.39 40.887c16.663-4.0146 32.168-13.489 40.378-24.673 3.0465-4.1502 9.728-18.686 9.728-21.163 0-0.44043-1.3428-0.6037-2.9839-0.36283-2.6221 0.38485-3.1931 1.1015-4.7088 5.9098-1.9068 6.0489-8.4058 14.204-16.38 20.553-6.3814 5.0809-17.872 10.291-28.11 12.745-9.6593 2.3156-12.818 2.5008-12.818 0.75151 0-1.5764 56.093-57.743 57.668-57.743 0.63506 0 2.3196-1.3844 3.7434-3.0765 3.0464-3.6205 2.8553-5.4056-1.5739-14.703-6.334-13.296-17.357-20.475-43.262-28.176-23.051-6.8526-26.324-8.7486-27.269-15.8-0.49253-3.6721-0.26819-4.0993 3.6758-6.9997 7.6986-5.6616 19.505-6.5668 37.518-2.8767 3.85 0.78868 9.8108 1.7257 13.246 2.0822 5.7227 0.5939 6.449 0.44547 8.6654-1.771 4.1318-4.1318 11.409-32.404 8.9241-34.67-0.45966-0.4191-3.7608-1.708-7.3358-2.8641-25.137-8.1294-53.427-9.7162-73.761-4.1374-21.791 5.9784-37.188 20.873-41.134 39.791-1.3398 6.4245-1.4195 10.918-0.20182 11.367 0.4968 0.18333 1.3866 4.3205 1.9773 9.1938 1.6785 13.847 5.9287 21.826 15.43 28.965 8.0595 6.0558 14.894 9.0631 32.162 14.153 24.017 7.0791 27.527 9.4727 27.527 18.771 0 4.4721-0.38024 5.3286-3.7266 8.3937-9.5424 8.7405-33.068 9.5102-55.946 1.8303-9.4327-3.1664-10.886-3.1335-12.159 0.27601-0.56493 1.5125-2.2146 5.9-3.6658 9.75-2.7354 7.2565-5.5027 19.581-5.5027 24.506 0 2.6451 0.50616 2.9954 7.75 5.3645 12.031 3.9347 20.009 5.7507 29.25 6.6587 12.907 1.268 33.147 0.303 42.894-2.0451zm193.11 0.47851c9.428-1.5157 28.838-6.2591 34.398-8.4061l2.8975-1.119-0.64752-9.1223c-0.35614-5.0173-0.65441-13.891-0.66283-19.719-9e-3 -6.5271-0.3547-10.06-0.89908-9.2007-0.48607 0.76764-1.5382 1.1446-2.3381 0.83764-1.1926-0.45765-1.5707 1.3436-2.1009 10.01-0.35563 5.8124-0.6466 12.963-0.6466 15.889 0 6.592-1.0172 7.3628-13.5 10.229-29.324 6.7341-56.189 7.6126-79.971 2.6149-8.6366-1.8149-19.638-7.0196-25.351-11.993-6.0792-5.2926-13.676-15.646-15.786-21.515-1.5782-4.3889-2.1215-4.9686-4.6565-4.9686-3.5086 0-3.3957 0.53248 2.9288 13.818 10.043 21.097 27.208 31.191 58.161 34.203 11.615 1.1302 36.445 0.32656 48.175-1.5592zm117.88-0.59425c8.7947-1.0001 10.021-1.3785 10.532-3.25 1.0871-3.9798 1.871-28.104 1.1596-35.685-0.70393-7.5006-0.73359-7.5633-3.392-7.1665l-2.6818 0.40027-0.18905 15.467c-0.22624 18.509-1.1124 22.097-5.6277 22.787-12.912 1.9742-35.132 1.0896-36.708-1.4614-1.2494-2.0215-2.0861-11.13-2.27-24.71-0.1488-10.989-0.34798-12.25-1.9355-12.25-0.9733 0-1.7982-0.5625-1.833-1.25-0.0349-0.6875-0.42193-0.35-0.86015 0.75-2.3639 5.9336-1.8143 42.162 0.67739 44.654 2.3467 2.3467 28.444 3.384 43.128 1.7143zm-130.48-37.624c2.3923-0.68837 2.9621-1.4602 3.2661-4.4234 0.34176-3.3314 0.15135-3.6213-2.6479-4.0322-2.373-0.34828-3.0161-0.0701-3.0161 1.3047 0 2.3831-3.9627 3.1162-16.868 3.1208-7.695 3e-3 -11.875-0.4749-15.132-1.7291-2.475-0.95307-6.5118-1.9554-8.9706-2.2274-4.0188-0.44457-4.3359-0.33223-3.1376 1.1116 2.1234 2.5586 8.124 5.9314 13.059 7.34 4.9078 1.401 28.082 1.0787 33.447-0.46514zm139.99-61.495c0.48556-10.824 1.6257-62.257 2.9075-131.16l0.20298-10.911-3-0.91682c-7.8179-2.3892-52.786-1.8086-55.309 0.71418-0.26008 0.26008 0.22795 31.143 1.0845 68.63 1.2326 53.942 1.8354 68.416 2.8907 69.402 2.038 1.9028 6.553 2.696 7.0365 1.2361 0.22639-0.68358-0.14522-30.268-0.82581-65.743-0.80823-42.129-0.8975-64.847-0.25736-65.5 1.4089-1.4376 36.454-1.3262 37.901 0.1205 0.82733 0.82733 0.79913 19.565-0.10779 71.618-0.67556 38.773-0.94226 71.242-0.59266 72.154 0.60591 1.579 3.873 3.4094 6.3275 3.545 0.78081 0.0431 1.3375-4.1712 1.7419-13.187zm-237.63-5c3.956-5.1149 35.766-36.75 36.953-36.75 0.87444 0 1.2874 1.5695 1.2874 4.893 0 3.5393 0.43762 5.0609 1.5818 5.5 2.8795 1.105 6.1952 0.63044 6.8112-0.9748 0.33385-0.86998 0.60699-10.979 0.60699-22.465 0-19.357-0.13628-20.956-1.8654-21.881-5.488-2.9371-42.861-3.0274-50.503-0.12201l-2.6315 1.0005v19.334c0 15.451 0.29483 19.723 1.4682 21.275 1.1312 1.4956 1.4755 5.2881 1.5 16.524 0.0175 8.0208 0.3318 14.883 0.69847 15.25 1.1678 1.1678 2.3057 0.72765 4.0931-1.5833zm147.24-40.642v-30.892l-2.3563-0.5914c-1.296-0.32527-7.4835-1.0431-13.75-1.5952-11.539-1.0166-32.591 0.14167-35.864 1.9732-1.3084 0.73222-1.4695 4.3326-1.1713 26.173 0.19019 13.928 0.55149 25.661 0.80289 26.074 0.25139 0.4125 1.953 0.75 3.7814 0.75 2.6021 0 3.4553-0.4888 3.9273-2.25 0.33164-1.2375 0.60913-11.314 0.61664-22.393 0.0118-17.437 0.22614-20.225 1.5954-20.75 2.0606-0.79074 29.776-0.79074 31.836 0 1.3814 0.5301 1.5835 3.6654 1.5954 24.75 8e-3 13.279 0.2787 25.131 0.60263 26.339 0.59597 2.2225 2.0476 2.9769 6.1337 3.1876l2.25 0.116zm-594.69-140.11c0.62281-1.65 1.4953-3 1.9388-3 0.44354 0 0.10833 1.35-0.74492 3s-1.7257 3-1.9388 3 0.12212-1.35 0.74492-3zm792.36-0.66667c-0.36667-0.36666-0.65299-1.3792-0.63626-2.25 0.025-1.3003 0.22011-1.2571 1.0917 0.24167 1.0768 1.8517 0.76461 3.2284-0.4554 2.0083zm-6.9354-13.479c-0.95217-1.6591-1.7113-3.5425-1.687-4.1854 0.0243-0.64293 0.95684 0.561 2.0723 2.6754 2.4169 4.5814 2.097 5.8352-0.38528 1.51zm-777.68-0.3544c-0.0245-1.4859 1.7605-4.0257 2.3882-3.398 0.29923 0.29922-0.11199 1.4112-0.91382 2.471-0.80182 1.0598-1.4653 1.477-1.4744 0.927zm772.58-9.0387c-0.96498-2.5147-0.68031-3.1636 0.49853-1.1363 0.58369 1.0038 0.8506 2.0357 0.59313 2.2931s-0.74872-0.26309-1.0917-1.1568zm-438.11-220.48c0.34546-0.55897 1.047-0.75741 1.559-0.44098 1.387 0.85724 1.1284 1.4573-0.62812 1.4573-0.85746 0-1.2764-0.45734-0.9309-1.0163zm108 0c0.34546-0.55897 1.047-0.75741 1.559-0.44098 1.387 0.85724 1.1284 1.4573-0.62812 1.4573-0.85746 0-1.2764-0.45734-0.9309-1.0163z" fill="#e9e7e8"/>
    <path d="m470.5 939.46c-70.936-7.2786-138.21-31.403-196.53-70.476-19.922-13.347-44.97-33.089-44.97-35.444 0-0.63324 4.9518-6.031 11.004-11.995 10.16-10.012 11.138-10.726 12.75-9.3055 7.1646 6.3123 26.797 21.302 36.697 28.02 54.463 36.955 111.64 58.217 178.55 66.392 18.097 2.2112 67.435 2.5008 85 0.49887 93.21-10.623 173.63-48.916 238.59-113.61 56.902-56.668 95.405-129.68 108.39-205.54 1.1771-6.875 2.5714-13.626 3.0983-15.002 3.7573-9.811 6.2009-66.796 3.9984-93.244-5.7374-68.894-27.338-130.89-65.595-188.25-7.6791-11.515-22.175-30.719-29.247-38.746-1.4202-1.612-0.70639-2.59 9.3055-12.75 5.964-6.0522 11.384-11.004 12.044-11.004 1.5328 0 15.351 16.685 26.677 32.211 24.846 34.061 47.019 77.393 60.528 118.29 8.7233 26.409 16.048 60.796 19.385 91 1.7359 15.715 1.7763 71.253 0.0623 85.5-4.6936 39.013-8.8301 58.579-18.71 88.5-18.529 56.114-47.292 106.24-86.501 150.74-70.323 79.814-165.23 129.82-272.03 143.33-17.909 2.265-73.844 2.8016-92.5 0.88724zm19.5-41.036c-1.925-0.21952-9.125-0.88214-16-1.4725-26.19-2.2489-57.539-9.0188-85.758-18.519-56.666-19.078-105.66-49.706-149.32-93.355-31.569-31.556-54.172-62.633-73.22-100.67-33.563-67.019-46.336-138.72-38.106-213.91 11.945-109.14 70.77-208.84 161.4-273.54 21.709-15.499 57.394-34.853 82.012-44.479 30.831-12.056 64.058-20.258 100-24.687 14.113-1.739 68.96-1.733 83 9e-3 49.544 6.1472 90.722 18.469 132.5 39.649 38.535 19.536 68.714 41.551 100.03 72.968 31.38 31.484 55.48 65.438 74.49 104.95 32.195 66.916 43.581 134.32 36.018 213.23-5.4744 57.124-30.441 122.44-66.282 173.4-26.519 37.708-60.813 72.131-96.952 97.318-53.263 37.122-112.38 59.419-178.3 67.254-12.171 1.4464-57.745 2.732-65.5 1.8476zm-171.65-294.01c3.9346-0.86317 11.766-3.7916 17.403-6.5076 22.987-11.075 36.578-31.658 40.862-61.886 1.8285-12.9 1.7246-25.167-0.32085-37.889-0.93988-5.8456-1.621-12.734-1.5135-15.308 0.39754-9.5241-9.5368-27.753-20.816-38.195-17.041-15.777-40.759-22.936-68.127-20.562-18.219 1.58-31.118 6.4982-44.101 16.815-20.473 16.269-31.585 44.701-30.583 78.247 0.27996 9.3699 0.69293 12.046 2.0986 13.599 0.9625 1.0634 1.7503 3.248 1.7507 4.8547 2e-3 9.6122 8.5626 30.837 16.838 41.749 10.356 13.655 30.013 24.18 49.84 26.686 9.1263 1.1531 27.833 0.33557 36.667-1.6026zm-35.846-41.314c-5.2022-2.4175-10.882-8.4204-13.429-14.193-4.6831-10.613-7.3963-31.78-4.7733-37.239 0.83632-1.7407 2.0286-7.131 2.6495-11.978 1.569-12.25 4.3353-19.064 10.066-24.794 5.339-5.339 9.4727-6.8783 18.494-6.8866 13.642-0.0127 20.376 4.7759 25.928 18.436 1.2442 3.0613 3.1178 6.5117 4.1635 7.6676 1.7246 1.9062 1.898 3.7889 1.8649 20.246-0.0371 18.437-0.39858 20.98-4.6795 32.92-2.3762 6.6275-8.1716 13.059-14.284 15.852-5.6341 2.5746-20.431 2.557-26-0.0309zm197.39 40.887c16.663-4.0146 32.168-13.489 40.378-24.673 3.0465-4.1502 9.728-18.686 9.728-21.163 0-0.44043-1.3428-0.6037-2.9839-0.36283-2.6221 0.38485-3.1931 1.1015-4.7088 5.9098-1.9068 6.0489-8.4058 14.204-16.38 20.553-6.3814 5.0809-17.872 10.291-28.11 12.745-9.6593 2.3156-12.818 2.5008-12.818 0.75151 0-1.5764 56.093-57.743 57.668-57.743 0.63506 0 2.3196-1.3844 3.7434-3.0765 3.0464-3.6205 2.8553-5.4056-1.5739-14.703-6.334-13.296-17.357-20.475-43.262-28.176-23.051-6.8526-26.324-8.7486-27.269-15.8-0.49253-3.6721-0.26819-4.0993 3.6758-6.9997 7.6986-5.6616 19.505-6.5668 37.518-2.8767 3.85 0.78868 9.8108 1.7257 13.246 2.0822 5.7227 0.5939 6.449 0.44547 8.6654-1.771 4.1318-4.1318 11.409-32.404 8.9241-34.67-0.45966-0.4191-3.7608-1.708-7.3358-2.8641-25.137-8.1294-53.427-9.7162-73.761-4.1374-21.791 5.9784-37.188 20.873-41.134 39.791-1.3398 6.4245-1.4195 10.918-0.20182 11.367 0.4968 0.18333 1.3866 4.3205 1.9773 9.1938 1.6785 13.847 5.9287 21.826 15.43 28.965 8.0595 6.0558 14.894 9.0631 32.162 14.153 24.017 7.0791 27.527 9.4727 27.527 18.771 0 4.4721-0.38024 5.3286-3.7266 8.3937-9.5424 8.7405-33.068 9.5102-55.946 1.8303-9.4327-3.1664-10.886-3.1335-12.159 0.27601-0.56493 1.5125-2.2146 5.9-3.6658 9.75-2.7354 7.2565-5.5027 19.581-5.5027 24.506 0 2.6451 0.50616 2.9954 7.75 5.3645 12.031 3.9347 20.009 5.7507 29.25 6.6587 12.907 1.268 33.147 0.303 42.894-2.0451zm193.11 0.47851c9.428-1.5157 28.838-6.2591 34.398-8.4061l2.8975-1.119-0.64752-9.1223c-0.35614-5.0173-0.65441-13.891-0.66283-19.719-9e-3 -6.5271-0.3547-10.06-0.89908-9.2007-0.48607 0.76764-1.5382 1.1446-2.3381 0.83764-1.1926-0.45765-1.5707 1.3436-2.1009 10.01-0.35563 5.8124-0.6466 12.963-0.6466 15.889 0 6.592-1.0172 7.3628-13.5 10.229-29.324 6.7341-56.189 7.6126-79.971 2.6149-8.6366-1.8149-19.638-7.0196-25.351-11.993-6.0792-5.2926-13.676-15.646-15.786-21.515-1.5782-4.3889-2.1215-4.9686-4.6565-4.9686-3.5086 0-3.3957 0.53248 2.9288 13.818 10.043 21.097 27.208 31.191 58.161 34.203 11.615 1.1302 36.445 0.32656 48.175-1.5592zm117.88-0.59425c8.7947-1.0001 10.021-1.3785 10.532-3.25 1.0871-3.9798 1.871-28.104 1.1596-35.685-0.70393-7.5006-0.73359-7.5633-3.392-7.1665l-2.6818 0.40027-0.18905 15.467c-0.22624 18.509-1.1124 22.097-5.6277 22.787-12.912 1.9742-35.132 1.0896-36.708-1.4614-1.2494-2.0215-2.0861-11.13-2.27-24.71-0.1488-10.989-0.34798-12.25-1.9355-12.25-0.9733 0-1.7982-0.5625-1.833-1.25-0.0349-0.6875-0.42193-0.35-0.86015 0.75-2.3639 5.9336-1.8143 42.162 0.67739 44.654 2.3467 2.3467 28.444 3.384 43.128 1.7143zm-130.48-37.624c2.3923-0.68837 2.9621-1.4602 3.2661-4.4234 0.34176-3.3314 0.15135-3.6213-2.6479-4.0322-2.373-0.34828-3.0161-0.0701-3.0161 1.3047 0 2.3831-3.9627 3.1162-16.868 3.1208-7.695 3e-3 -11.875-0.4749-15.132-1.7291-2.475-0.95307-6.5118-1.9554-8.9706-2.2274-4.0188-0.44457-4.3359-0.33223-3.1376 1.1116 2.1234 2.5586 8.124 5.9314 13.059 7.34 4.9078 1.401 28.082 1.0787 33.447-0.46514zm139.99-61.495c0.48556-10.824 1.6257-62.257 2.9075-131.16l0.20298-10.911-3-0.91682c-7.8179-2.3892-52.786-1.8086-55.309 0.71418-0.26008 0.26008 0.22795 31.143 1.0845 68.63 1.2326 53.942 1.8354 68.416 2.8907 69.402 2.038 1.9028 6.553 2.696 7.0365 1.2361 0.22639-0.68358-0.14522-30.268-0.82581-65.743-0.80823-42.129-0.8975-64.847-0.25736-65.5 1.4089-1.4376 36.454-1.3262 37.901 0.1205 0.82733 0.82733 0.79913 19.565-0.10779 71.618-0.67556 38.773-0.94226 71.242-0.59266 72.154 0.60591 1.579 3.873 3.4094 6.3275 3.545 0.78081 0.0431 1.3375-4.1712 1.7419-13.187zm-237.63-5c3.956-5.1149 35.766-36.75 36.953-36.75 0.87444 0 1.2874 1.5695 1.2874 4.893 0 3.5393 0.43762 5.0609 1.5818 5.5 2.8795 1.105 6.1952 0.63044 6.8112-0.9748 0.33385-0.86998 0.60699-10.979 0.60699-22.465 0-19.357-0.13628-20.956-1.8654-21.881-5.488-2.9371-42.861-3.0274-50.503-0.12201l-2.6315 1.0005v19.334c0 15.451 0.29483 19.723 1.4682 21.275 1.1312 1.4956 1.4755 5.2881 1.5 16.524 0.0175 8.0208 0.3318 14.883 0.69847 15.25 1.1678 1.1678 2.3057 0.72765 4.0931-1.5833zm147.24-40.642v-30.892l-2.3563-0.5914c-1.296-0.32527-7.4835-1.0431-13.75-1.5952-11.539-1.0166-32.591 0.14167-35.864 1.9732-1.3084 0.73222-1.4695 4.3326-1.1713 26.173 0.19019 13.928 0.55149 25.661 0.80289 26.074 0.25139 0.4125 1.953 0.75 3.7814 0.75 2.6021 0 3.4553-0.4888 3.9273-2.25 0.33164-1.2375 0.60913-11.314 0.61664-22.393 0.0118-17.437 0.22614-20.225 1.5954-20.75 2.0606-0.79074 29.776-0.79074 31.836 0 1.3814 0.5301 1.5835 3.6654 1.5954 24.75 8e-3 13.279 0.2787 25.131 0.60263 26.339 0.59597 2.2225 2.0476 2.9769 6.1337 3.1876l2.25 0.116z" fill="#fdcbe2"/>
    <path d="m487.5 940.32c-24.754-1.5766-53.632-5.9932-77.5-11.853-63.149-15.503-123.85-46.244-172.35-87.281l-8.8455-7.4852 11.022-11.022c10.244-10.244 11.16-10.922 12.983-9.6011 1.0788 0.78146 6.9779 5.4536 13.109 10.382 51.228 41.183 114.68 69.614 179.58 80.469 44.279 7.406 93.699 7.2189 136.5-0.51684 113.05-20.433 210.57-87.589 270.15-186.04 41.648-68.822 62.064-154.95 55.803-235.43-6.3007-80.984-35.469-154.67-86.51-218.55-5.1938-6.4999-9.4432-12.07-9.4432-12.377s4.8945-5.4388 10.877-11.402l10.877-10.843 6.7085 7.86c41.354 48.452 73.035 110.66 88.54 173.86 9.4061 38.337 12.439 67.174 11.674 111-0.54274 31.114-1.3204 40.11-5.7279 66.258-10.726 63.633-38.953 127.94-79.993 182.24-23.418 30.985-54.425 61.887-85.455 85.164-74.935 56.213-166.98 86.593-259.5 85.653-9.625-0.0978-19.75-0.32112-22.5-0.49627zm4.5-42.003c-112.54-6.3778-216.18-60.76-285.51-149.82-39.271-50.444-66.933-113.76-75.96-173.87-3.5869-23.883-4.5794-37.367-4.5626-61.982 0.0298-43.621 6.0542-81.828 19.017-120.61 11.506-34.419 25.028-62.023 45.578-93.044 26.39-39.836 61.73-76.075 100.94-103.5 53.187-37.209 115.27-60.291 182-67.67 15.318-1.6936 63.255-1.7097 78-0.0262 47.394 5.4111 89.857 17.6 130.16 37.362 107.08 52.502 184.62 151.95 209.28 268.39 6.2951 29.73 7.5271 42.658 7.4755 78.444-0.0396 27.446-0.39189 35.221-2.2653 50-8.5275 67.27-35.884 132.59-78.38 187.15-53.09 68.163-126.81 116.43-210.27 137.68-36.874 9.3866-78.876 13.565-115.5 11.489zm-176.84-292.73c39.163-7.5487 62.016-36.907 64.412-82.748 0.56699-10.85 0.15281-15.558-3.4911-39.688-1.1967-7.9246-9.1842-24.515-15.411-32.009-9.5927-11.546-24.901-20.951-41.172-25.297-11.734-3.1339-35.394-3.1556-47.852-0.0439-14.045 3.5085-25.517 9.989-35.792 20.22-7.6384 7.6052-9.2934 9.9368-14.227 20.043-8.2385 16.876-10.01 25.215-10.075 47.437-0.0578 19.496 1.1907 28.047 6.1099 41.85 9.6257 27.008 29.738 44.6 57.337 50.154 8.8692 1.7849 31.091 1.83 40.162 0.0816zm-31.662-43.464c-14.044-6.4422-20.918-29.491-17.074-57.25 2.7964-20.197 6.5307-28.411 15.247-33.534 4.3366-2.549 5.7429-2.8376 13.828-2.8376 7.7572 0 9.6091 0.34523 13.411 2.5 5.8633 3.3234 9.4695 8.0269 12.651 16.5 3.737 9.9531 4.3484 13.587 4.3752 26 0.0578 26.778-5.641 42.661-17.246 48.064-6.6906 3.1151-19.02 3.3879-25.19 0.55731zm197 42.475c25.535-6.9978 41.813-20.506 48.688-40.405 3.2487-9.4023 3.2046-27.637-0.0899-37.108-5.9936-17.23-18.059-26.319-45.756-34.466-23.084-6.7902-27.342-9.2435-27.342-15.752 0-9.8928 17.405-12.944 42.372-7.4279 6.5295 1.4425 12.775 3.1062 13.879 3.6971 1.6817 0.90001 2.3878 0.61119 4.352-1.78 4.478-5.4516 9.4755-21.768 9.7401-31.801l0.15685-5.947-5-1.9031c-9.2671-3.5272-23.921-6.6616-36.829-7.8777-35.54-3.3482-64.196 7.797-75.741 29.458-5.8411 10.959-7.0335 19.635-4.8531 35.311 1.7328 12.458 4.2927 17.964 11.832 25.45 8.267 8.2077 16.593 12.36 36.091 17.999 19.429 5.6186 24.777 8.1785 26.699 12.78 5.7483 13.758-15.119 22.66-41.421 17.671-4.3685-0.82869-11.928-2.8537-16.798-4.5-4.8704-1.6463-9.1789-2.9933-9.5744-2.9933-1.1258 0-6.8288 14.379-8.8731 22.372-1.0161 3.9728-2.0016 10.096-2.19 13.607l-0.34261 6.3841 10 3.227c16.551 5.341 24.543 6.3822 46 5.9934 13.616-0.24676 20.7-0.81027 25-1.9886zm-13.885-7.4088c-0.78692-1.2733 54.995-56.546 56.271-55.757 2.6174 1.6177-5e-3 17.034-4.3785 25.742-6.996 13.929-20.376 23.373-40.259 28.417-10.628 2.6961-10.929 2.7374-11.634 1.5981zm203.26 8.2403c12.491-1.8484 25.147-4.6632 33.878-7.5348l6.25-2.0554v-37.254c0-20.49 0.29734-58.177 0.66075-83.75 0.6279-44.185 0.57132-46.53-1.1384-47.186-0.98953-0.37971-7.3967-1.2179-14.238-1.8627-9.5338-0.89851-15.196-0.89663-24.244 8e-3 -6.4928 0.64917-12.556 1.4683-13.473 1.8202-1.5419 0.59168-1.6204 5.5091-1.0424 65.264 0.41546 42.944 0.28599 65.112-0.38593 66.079-1.3662 1.9666-13.754 3.0312-22.497 1.9335-12.496-1.569-18.947-7.3035-22.373-19.889-1.606-5.8993-1.7452-11.41-1.5061-59.638 0.22371-45.113 0.0494-53.22-1.1542-53.682-4.1052-1.5753-23.177-2.8876-33.109-2.2781-10.918 0.66997-19.077 1.8415-20.125 2.8899-0.30039 0.30039-0.0859 26.795 0.4767 58.877 1.1092 63.253 1.2427 64.74 7.133 79.45 9.0807 22.678 25.067 34.567 52.078 38.73 13.054 2.012 41.468 2.0524 54.81 0.0781zm-36.372-7.4873c-16.143-0.78234-24.295-2.1272-33.192-5.4759-12.289-4.6257-21.716-13.382-27.795-25.819-6.3802-13.053-8.4645-25.465-8.493-50.58l-0.01981-17.435 17.213-17.315c9.4669-9.5231 17.522-17.315 17.899-17.315 1.5569 0 2.1926 11.192 2.3569 41.5 0.14456 26.656 0.46009 33.081 1.8894 38.475 3.2121 12.122 10.086 20.269 20.032 23.741 6.0988 2.1291 30.478 2.4488 37.195 0.48779l4.0858-1.1928 0.66453-64.706c0.3655-35.588 1.043-65.084 1.5055-65.547 1.2237-1.2237 23.874-2.0378 29.158-1.048l4.5 0.84294 0.62663 26.973c0.34464 14.835 0.65339 48.798 0.6861 75.473 0.0468 38.159-0.21384 48.779-1.2224 49.81-1.7174 1.7551-13.429 4.7102-28.09 7.0876-15.585 2.5272-22.029 2.8647-39 2.0422zm166.13 5.5791c2.6463-0.85649 3.2323-4.2182 3.9252-22.519 0.31626-8.3528 0.022-17.122-0.7719-23l-1.283-9.5-9-1.1735c-4.95-0.64541-12.825-1.2066-17.5-1.2472-9.3042-0.0807-26.042 1.6595-27.278 2.836-3.3926 3.2289-4.055 47.692-0.78925 52.976 0.44002 0.71197 3.2226 1.6718 6.1836 2.1331 6.1045 0.95088 43.261 0.54701 46.513-0.50557zm-42.879-8.2081c-2.6812-0.70075-3.2507-4.4692-3.2507-21.511 0-11.25 0.35528-16.055 1.2535-16.954 2.6986-2.6986 35.77-2.736 38.45-0.0435 0.95204 0.95656 1.2968 5.4765 1.2968 17 0 18.909-0.38819 20.725-4.612 21.569-3.5076 0.70151-30.409 0.6515-33.137-0.0616zm35.816-66.392c3.2635-0.5945 6.3196-1.4529 6.7912-1.9075s1.4519-25.956 2.1783-56.669c0.72645-30.713 1.6316-67.593 2.0113-81.954l0.69052-26.112-2.5319-0.63546c-7.4766-1.8765-28.441-2.7448-40.522-1.6783-6.9763 0.61588-13.472 1.3565-14.434 1.6459-1.591 0.47833-1.7432 2.2689-1.6757 19.709 0.0671 17.326 2.3608 103.94 3.5585 134.38l0.47995 12.197 4.6936 0.63148c2.5815 0.34731 5.1436 0.78555 5.6936 0.97387 2.4484 0.83834 27.712 0.39472 33.066-0.58062zm-33.283-7.6205c-3.001-0.58077-3.7098-4.9145-2.831-17.31 0.38507-5.4314 0.15184-37.397-0.5183-71.035-1.0385-52.128-1.0128-61.29 0.17389-62.042 1.807-1.1442 33.965-1.1522 35.77-9e-3 1.5989 1.0127 1.6083 6.1117 0.16594 89.597-0.51312 29.7-0.84541 55.323-0.73843 56.941 0.15625 2.3625-0.2973 3.0806-2.3055 3.6503-2.6757 0.75906-26.024 0.92185-29.717 0.20718z" fill="#fbc3dd"/>
    <path d="m479 938.87c-87.506-7.098-169.25-39.98-237.43-95.505l-11.793-9.6041 10.345-10.38c5.6898-5.7092 10.578-10.37 10.863-10.356 0.28483 0.0131 6.1429 4.5448 13.018 10.07 50.734 40.776 111.49 68.739 174.74 80.43 24.087 4.4519 36.869 5.6739 64.905 6.2046 46.076 0.87221 83.356-4.0461 124.36-16.406 36.803-11.095 78.552-31.22 109.44-52.759 76.099-53.056 130.98-128.71 156.37-215.57 9.9703-34.099 14.869-65.775 15.853-102.5 1.9646-73.378-15.438-143.39-51.451-207-7.5254-13.292-24.535-38.328-33.899-49.897-4.8515-5.9936-9.4602-11.764-10.242-12.823-1.3147-1.7822-0.63686-2.7099 9.0799-12.427l10.501-10.501 7.0016 8.3241c55.311 65.758 89.615 148.15 97.92 235.19 2.2686 23.776 1.4908 71.378-1.53 93.631-12.664 93.292-52.693 176.05-117.47 242.86-73.361 75.661-169.77 120.77-275.97 129.13-14.973 1.1781-49.417 1.1166-64.605-0.11539zm4-41.533c-46.111-4.5194-82.853-13.395-120.47-29.101-74.832-31.244-142.21-90.379-183.85-161.35-36.364-61.986-54.326-131.92-52.365-203.88 1.0977-40.28 6.6181-72.478 18.824-109.79 35.867-109.65 118.22-197.13 226.01-240.09 105.51-42.053 228.16-34.057 327.96 21.382 15.466 8.5915 39.637 24.929 54.896 37.106 17.236 13.755 45.6 42.101 59.147 59.11 47.028 59.046 74.141 123.98 83.42 199.79 2.3551 19.24 2.3983 61.269 0.0847 82.5-9.456 86.772-46.533 165.63-107.12 227.83-31.119 31.949-61.983 54.793-101.16 74.878-45.583 23.367-91.304 36.611-142.37 41.241-10.447 0.94709-54.521 1.2173-63 0.38627zm-162.5-292.31c26.225-6.7384 45.304-24.457 54.062-50.208 9.2909-27.316 7.5925-64.734-4.0088-88.316-8.0674-16.399-18.889-27.198-35.054-34.981-12.519-6.0276-19.485-7.5928-36.5-8.2011-12.159-0.43463-16.115-0.18529-24.5 1.5443-11.938 2.4622-25.025 8.61-34.121 16.028-15.713 12.815-26.633 35.272-29.333 60.321-1.4189 13.166-1.3204 19.188 0.51648 31.559 6.3072 42.477 30.697 68.903 68.498 74.215 10.18 1.4307 31.208 0.41108 40.439-1.961zm-34.575-42.573c-13.463-4.148-20.936-23.036-19.565-49.451 1.6552-31.89 9.8706-44.378 29.14-44.295 13.375 0.058 21.096 6.011 26.078 20.106 2.412 6.824 2.7662 9.4869 3.1515 23.688 0.32685 12.049 0.0486 17.829-1.1266 23.406-2.1308 10.112-6.529 19.173-10.939 22.537-6.9175 5.2763-17.483 6.86-26.739 4.0082zm183.58 44.477c30.148-3.5718 53.048-20.157 60.652-43.928 1.5405-4.8161 2.0913-9.2201 2.1262-17 0.10054-22.398-8.5417-37.442-26.559-46.232-4.0775-1.9892-14.345-5.7176-22.816-8.2852-18.65-5.6527-24.068-8.176-25.346-11.805-3.8055-10.809 12.252-15.577 36.046-10.704 5.9359 1.2157 12.97 3.0687 15.632 4.1178 2.6616 1.0491 5.1601 1.907 5.5522 1.9064 2.529-4e-3 10.346-20.416 11.68-30.499 0.36378-2.75 0.89336-6.2381 1.1768-7.7514 0.46251-2.469 0.071-2.941-3.8143-4.5987-6.1474-2.6229-22.948-6.8525-32.152-8.0944-9.983-1.3471-28.305-1.3443-36.625 6e-3 -16.003 2.5964-32.529 10.836-40.566 20.225-5.3145 6.2088-10.112 16.559-11.506 24.824-1.3919 8.2524-0.1726 23.228 2.519 30.937 5.4126 15.503 18.508 24.678 47 32.932 16.681 4.8325 23.738 8.0525 25.337 11.561 4.694 10.302-4.5306 17.472-23.491 18.258-11.584 0.48034-21.792-1.2196-35.18-5.8586-4.6214-1.6013-8.7191-2.7158-9.1059-2.4768-1.0054 0.62136-5.7518 12.984-8.1087 21.119-1.1021 3.8045-2.2791 10.347-2.6156 14.539l-0.61168 7.6218 7.8883 2.6053c20.808 6.8721 41.842 9.0726 62.888 6.5792zm25-37.83 27-27.132 0.30928 4.6267c0.62286 9.3176-3.3869 20.524-10.41 29.096-7.3242 8.9382-25.612 18.249-39.188 19.951l-4.7107 0.59061zm179.5 36.335c10.007-1.7306 29.589-6.48 34.256-8.3084l2.7557-1.0796-0.25569-84.201-0.25568-84.201-3-0.9811c-3.9038-1.2767-44.096-1.2768-48-1e-4l-3 0.98098-1 131.77-2.5 0.69524c-3.9643 1.1025-17.427 0.99648-22.914-0.18041-9.0327-1.9372-14.399-7.1611-17.81-17.337-1.4957-4.4626-1.7713-11.844-2.2407-60.017l-0.53527-54.929-3-0.98053c-3.9066-1.2769-44.099-1.2756-48 2e-3l-3 0.98204 3e-3 56.427c3e-3 50.62 0.19075 57.351 1.8245 65.403 7.2803 35.88 26.822 53.242 64.672 57.459 11.755 1.3096 40.554 0.47817 52-1.5013zm-52.946-9.5553c-24.178-2.8011-38.597-11.774-47.059-29.283-6.3139-13.065-7.1497-17.973-7.6795-45.095l-0.46887-24 16.577-16.489c9.1172-9.0688 16.631-16.269 16.698-16 0.0668 0.26874 0.46318 17.589 0.88084 38.489 0.83493 41.78 1.1456 44.038 7.3227 53.216 4.189 6.2242 10.498 10.885 17.491 12.922 10.587 3.0836 36.77 1.6326 40.656-2.253 1.2672-1.2672 1.4713-10.374 1.4588-65.087-0.0101-44.2 0.31479-63.943 1.0645-64.693 1.088-1.088 30.308-1.6317 31.358-0.58342 0.8102 0.80835 1.4462 92.13 0.86138 123.68l-0.52277 28.2-10.596 2.5195c-18.231 4.3348-28.553 5.5818-45.096 5.4476-8.525-0.0691-18.851-0.5139-22.946-0.98836zm176.72 8.4931c1.8501-0.34214 3.802-1.535 4.4813-2.7386 1.3954-2.4722 1.7477-41.173 0.44416-48.786-0.94402-5.5133-0.65038-5.3956-17.043-6.8326-11.972-1.0495-34.196 0.13187-37.693 2.0037-2.1234 1.1364-2.8293 5.2401-3.6094 20.982-0.59904 12.088 0.85086 32.621 2.4122 34.159 2.3952 2.36 39.973 3.253 51.008 1.2121zm-39.426-9.9998c-1.1814-0.26597-2.4128-1.4708-2.7364-2.6774-0.96058-3.5822-0.66498-32.067 0.34942-33.671 0.73195-1.1575 3.9242-1.5523 14.735-1.8222 7.5902-0.18951 15.6 0.0437 17.8 0.51832l4 0.86289 0.65421 5.9593c0.76239 6.9448-0.0848 27.729-1.2041 29.54-0.77808 1.259-28.934 2.3404-33.598 1.2905zm37.614-65.149c2.9194-0.66584 3.5782-1.3371 4.1774-4.2565 1.1564-5.6341 4.291-161.93 3.2678-162.94-3.6659-3.6149-55.309-3.4591-58.946 0.17784-0.53289 0.53289 0.95312 71.35 2.668 127.14 0.85205 27.722 1.5282 38.972 2.3613 39.292 5.6618 2.1726 37.742 2.5773 46.472 0.58624zm-33.466-9.0459-4-0.6765-1.3471-72.776c-0.74093-40.027-1.0926-73.439-0.78139-74.25 0.46777-1.219 3.5053-1.4743 17.538-1.4743 11.438 0 17.198 0.36484 17.664 1.1188 1.2632 2.0438-1.2068 145.8-2.5291 147.19-1.0105 1.0676-21.414 1.7319-26.544 0.86425z" fill="#fbb1d2"/>
    <path d="m488 897c-39.443-2.9602-75.452-10.695-111.5-23.951-18.448-6.7839-52.626-23.779-69.5-34.559-27.326-17.458-56.605-41.761-76.863-63.801-51.319-55.833-85.234-123.86-97.561-195.69-4.4772-26.088-5.0769-34.032-5.0577-67 0.0185-31.845 0.46414-37.984 4.5727-63 18.689-113.79 91.269-216.96 191.6-272.36 48.796-26.941 94.458-41.523 149.81-47.843 14.739-1.6828 62.68-1.6674 78 0.0251 47.687 5.2681 89.579 17.47 131.5 38.302 39.025 19.393 69.996 41.75 101.56 73.313 40.698 40.698 69.442 85.591 89.963 140.51 9.7848 26.185 15.884 50.914 20.607 83.552 2.0006 13.824 2.3117 19.876 2.2867 44.5-0.0307 30.268-0.92873 42.318-4.9715 66.708-4.749 28.65-13.523 59.307-23.981 83.792-2.5841 6.05-6.1413 14.375-7.9049 18.5-7.223 16.894-22.752 42.374-39.836 65.361-23.564 31.707-54.798 62.01-87.611 85-45.201 31.67-102.23 55.184-154.29 63.62-29.805 4.8295-66.393 6.8508-90.82 5.0175zm-169.93-290.51c8.5797-1.8048 16.906-5.0526 24.687-9.63 7.3315-4.3128 20.782-17.763 25.094-25.094 13.888-23.609 17.547-57.211 9.6285-88.426-10.249-40.401-42.435-62.975-86.983-61.007-20.622 0.9111-35.453 6.1767-50.035 17.764-8.9895 7.1436-15.118 15.172-21.107 27.651-5.5956 11.659-7.8502 20.474-9.2728 36.258-2.7077 30.041 4.7203 58.252 20.316 77.159 12.235 14.833 30.017 24.096 51.598 26.878 8.6707 1.1178 27.162 0.32182 36.073-1.5528zm-31.958-44.925c-9.217-3.0012-14.932-11.832-17.615-27.218-2.6709-15.316-1.6477-33.073 2.699-46.841 4.7821-15.147 17.682-21.694 33.493-16.999 9.3469 2.7757 15.666 12.405 18.384 28.017 1.8033 10.355 0.7049 35.378-1.9086 43.482-3.1209 9.6777-7.0693 15.29-12.662 17.997-5.9002 2.8562-16.208 3.5754-22.391 1.5621zm190.88 45.057c27.842-5.3751 47.684-21.794 54.585-45.169 2.1199-7.1798 2.3563-22.472 0.47075-30.448-2.0466-8.6566-7.6485-18.427-13.776-24.027-7.0866-6.4768-16.231-10.762-35.28-16.534-8.525-2.5831-17.206-5.5568-19.29-6.6082-7.1155-3.5891-7.468-10.687-0.69928-14.079 7.4272-3.7217 31.574-1.237 47.329 4.8702l4.8393 1.8759 1.8535-2.2889c4.6883-5.7898 11.464-29.566 10.785-37.843l-0.31723-3.8652-8.2997-2.7829c-16.065-5.3867-26.189-6.9975-44.7-7.112-20.428-0.12636-28.61 1.417-42 7.9215-21.106 10.253-30.979 26.053-30.916 49.473 0.0457 16.913 4.9253 29.406 14.532 37.206 9.9312 8.0631 15.482 10.483 44.289 19.304 13.683 4.1904 17.595 7.0192 17.595 12.724 0 7.2427-8.4724 11.909-22.837 12.577-11.628 0.54112-21.772-1.0378-34.648-5.3928-7.874-2.6633-10.238-3.1174-11.181-2.1481-1.7116 1.7599-6.7676 15.015-8.8606 23.229-0.98096 3.85-1.8264 10.084-1.8787 13.853l-0.0951 6.8532 4.9 1.939c8.2418 3.2614 23.62 6.9016 33.1 7.8349 11.566 1.1388 30.912 0.48733 40.5-1.3638zm195.5-0.12631c11.052-1.6754 32.229-6.7721 36.356-8.7501l2.6435-1.267 0.25565-84.109c0.20221-66.526-7e-3 -84.324-1-85.138-1.7874-1.4643-17.576-3.223-28.756-3.203-8.773 0.0157-21.078 1.2665-25.25 2.5668-1.6433 0.51212-1.75 4.5368-1.75 66.003v65.457l-2.75 1.072c-1.6098 0.62754-6.9743 0.89377-12.938 0.64209-15.768-0.66539-21.838-4.669-26.04-17.175-1.5134-4.5039-1.7474-11.428-2.0378-60.286-0.30284-50.951-0.4591-55.237-2.031-55.712-3.632-1.0966-19.032-2.5906-26.677-2.5879-9.9691 4e-3 -25.604 1.8481-27.276 3.2181-1.6219 1.3286-1.7805 98.1-0.18426 112.42 4.0574 36.387 20.738 58.007 50.434 65.37 16.462 4.0816 45.604 4.727 67 1.4838zm119.56-0.60533c4.7822-0.61329 9.2358-1.4494 9.897-1.858 2.0879-1.2904 3.2535-15.894 2.6759-33.527-0.66457-20.29-1.0474-22.302-4.5132-23.723-1.4406-0.59076-10.95-1.2841-21.131-1.5407-19.033-0.47976-31.678 0.64396-33.097 2.9414-2.2531 3.6456-3.244 34.348-1.5533 48.133 0.68414 5.5783 1.2268 6.9822 2.9992 7.7588 6.0035 2.6304 30.587 3.6284 44.723 1.8155zm-1.5595-74.975c4.95-0.59659 9.4492-1.517 9.9981-2.0453 0.61454-0.59145 1.6434-28.708 2.6773-73.162 2.2521-96.838 2.2536-93.402-0.0406-94.63-4.0466-2.1657-28.297-3.4494-41.774-2.2113-14.471 1.3294-17.052 1.8404-17.618 3.4877-0.3954 1.1501 1.4716 96.573 2.7856 142.37 0.79324 27.648-0.39927 24.876 11.291 26.24 10.102 1.1783 22.658 1.1598 32.681-0.0482z" fill="#f489b8"/>
    <path d="m492 896.39c-14.505-1.0185-36.785-3.7469-48.984-5.9985-60.825-11.226-118.93-37.017-163.64-72.628-22.867-18.216-28.762-23.408-41.878-36.883-59.736-61.371-96.006-136.63-107.17-222.38-2.5959-19.943-2.6017-71.978-0.0103-92 9.4132-72.73 36.786-137.13 83.309-196 10.664-13.494 42.312-45.304 55.87-56.155 20.973-16.786 34.907-26.099 57-38.094 48.929-26.566 91.419-40.084 146-46.45 17.15-2.0003 66.681-1.6698 84 0.56046 48.997 6.3098 87.951 18.103 129.5 39.206 18.302 9.2958 30.064 16.348 45.078 27.029 68.052 48.409 113.81 108 143.14 186.4 13.235 35.385 21.311 76.363 22.467 114 2.6406 85.993-23.032 172.11-70.849 237.67-17.748 24.332-22.8 30.308-41.328 48.895-30.911 31.007-60.065 52.348-97.507 71.375-42.784 21.741-85.433 34.366-133.87 39.628-13.494 1.4659-50.517 2.5724-61.132 1.8271zm-182.5-287.5c19.593-2.391 34.197-9.3864 47.591-22.795 9.415-9.426 14.632-17.701 19.085-30.272 11.481-32.412 7.4308-74.941-9.5074-99.828-14.483-21.28-37.07-33.105-66.247-34.682-38.686-2.0905-67.794 14.917-83.132 48.573-10.534 23.116-11.783 56.392-3.1182 83.108 13.195 40.686 48.816 61.572 95.328 55.896zm-22.942-48.388c-5.8323-2.0777-8.7449-4.5891-11.772-10.151-3.9389-7.2363-5.7797-15.322-6.4561-28.357-0.95876-18.477 1.9512-34.182 7.9965-43.157 6.9072-10.255 27.566-11.75 36.388-2.6333 6.7784 7.0047 10.287 20.575 10.287 39.791 0 20.212-3.8628 34.159-11.2 40.44-6.2273 5.3303-16.88 7.0472-25.242 4.0684zm181.65 48.384c33.929-3.6531 58.139-21.898 64.877-48.892 1.8442-7.3882 1.6162-22.967-0.45221-30.895-5.1576-19.769-18.717-30.862-48.293-39.51-18.151-5.307-23.312-7.4353-24.534-10.118-1.6804-3.688-0.25686-7.0365 3.8122-8.9674 7.357-3.4911 29.907-1.2149 44.346 4.4764 8.1589 3.2159 8.7203 2.9807 12.495-5.2365 4.3777-9.5309 7.5815-21.262 8.2612-30.249l0.54879-7.2563-5.8582-2.1918c-3.222-1.2055-10.28-3.2625-15.684-4.5711-43.924-10.636-82.61-1.2709-98.923 23.946-10.168 15.718-11.357 39.632-2.8119 56.559 5.5552 11.005 18.745 20.479 36.007 25.864 5.225 1.63 14.09 4.3958 19.701 6.1462 11.384 3.5518 15.299 6.3211 15.299 10.821 0 7.0432-7.4875 11.154-21.754 11.943-11.572 0.64037-21.734-0.954-34.581-5.4257-5.4547-1.8987-10.469-3.2405-11.143-2.9818-1.5441 0.59251-7.1379 14.373-9.7056 23.91-1.0715 3.98-2.2027 10.65-2.5137 14.822l-0.56543 7.5854 6.8816 2.5438c20.091 7.4268 42.35 10.072 64.592 7.6777zm191.79 0.05181c19.416-1.7714 50.094-8.9103 52.138-12.133 0.45739-0.72124 0.83851-39.208 0.84693-85.526 0.0144-79.192-0.0891-84.27-1.7347-85.147-2.6389-1.4056-18.569-3.1322-28.928-3.1354-10.007-3e-3 -23.726 1.6076-26.546 3.1166-1.6746 0.89622-1.7768 4.7105-1.7768 66.299v65.348l-2.25 0.60297c-3.7112 0.99456-16.287 0.70812-21.951-0.49999-6.996-1.4922-12.835-7.1367-15.391-14.877-1.6435-4.9777-1.847-10.668-2.1719-60.74-0.32842-50.611-0.50025-55.323-2.0473-56.147-2.4643-1.3124-18.431-3.0998-27.689-3.0998-9.3574 0-25.234 1.7922-27.75 3.1326-1.6326 0.86957-1.75 4.4498-1.75 53.346 0 56.071 0.76356 68.33 5.0801 81.563 5.9593 18.27 17.731 32.476 32.92 39.728 16.344 7.8036 41.003 10.723 69 8.1688zm133.25-2.0836c12.607-1.6168 12.201-0.67649 12.228-28.284 0.0255-26.112-0.60707-31.295-3.9757-32.576-5.3931-2.0504-27.332-3.1925-39.681-2.0656-14.95 1.3642-17.051 2.2475-18.008 7.5704-1.529 8.5033-2.0508 30.226-0.96344 40.115 1.3222 12.024 1.7141 13.234 4.5099 13.928 9.5931 2.3792 32.471 3.0335 45.89 1.3125zm4.0785-75.725c2.1061-0.52801 4.1311-1.2617 4.5-1.6303 0.58125-0.58085 3.8834-127.82 4.0948-157.78 0.0915-12.972 1.3351-12.037-18.295-13.75-14.158-1.2354-36.466-0.1278-42.33 2.1017l-2.6165 0.99479 0.68307 42.714c1.3417 83.898 2.6122 124.62 3.9292 125.94 0.67908 0.67908 4.3782 1.6676 8.2203 2.1968 8.1985 1.1291 36.284 0.60222 41.815-0.78448z" fill="#fc73b0"/>
    <path d="m485 895.32c-17.149-0.97842-47.186-5.8556-67.5-10.96-12.62-3.1712-41.203-12.384-53-17.084-19.89-7.9227-51.228-24.985-69.75-37.975-4.2625-2.9894-7.75-5.8544-7.75-6.3665 0-0.55095 10.616-0.93112 26-0.93112 14.3 0 25.998-0.3375 25.997-0.75-6e-3 -1.2664-43.792-76.684-44.672-76.943-0.45375-0.1336-8.178 12.568-17.165 28.225-10.807 18.829-16.888 28.468-17.958 28.468-2.5186 0-33.502-31.977-45.54-47-50.003-62.403-78.583-134.37-84.716-213.34-1.3424-17.282-0.80806-53.911 1.0089-69.164 4.2155-35.388 15.091-76.397 28.751-108.41 19.361-45.381 47.586-87.369 81.776-121.65 9.9104-9.9379 24.094-22.911 31.519-28.828 15.271-12.171 39.373-28.621 41.854-28.566 1.0934 0.0245 7.0548 9.4964 17.749 28.201 8.8564 15.49 16.557 28.315 17.112 28.5 0.55505 0.18502 5.2166-6.9929 10.359-15.951 5.1425-8.958 15.33-26.578 22.638-39.156 7.3086-12.578 13.288-23.48 13.288-24.226 0-1.0774-3.4486-1.4132-16.75-1.6309l-16.75-0.27418 5.5-2.6262c15.109-7.2144 53.83-18.521 78-22.776 91.196-16.055 184.18 0.93991 263.57 48.176 6.088 3.6221 11.606 7.2322 12.262 8.0226 0.96608 1.164-1.7799 6.6366-14.462 28.821-41.042 71.795-57.738 100.55-59.475 102.45-1.0416 1.1354-1.8938 2.4854-1.8939 3-9e-5 0.5759 35.244 0.83154 91.679 0.66498 50.424-0.14881 92.055 0.10497 92.514 0.56396s-4.2342 9.6984-10.429 20.532c-10.781 18.853-11.302 19.569-12.152 16.71-1.034-3.4796-1.4048-3.6268-12.586-4.9967-18.042-2.2106-48.917-0.30416-51.204 3.1618-0.47186 0.71495-0.62392 7.3749-0.33792 14.8s1.0199 40.725 1.631 74c0.61103 33.275 1.3976 65 1.748 70.5l0.63709 10 6.5 1.1421c13.735 2.4133 46.406 1.069 48.849-2.01 0.49394-0.62266 1.4606-26.782 2.148-58.132s1.5319-62.175 1.8765-68.5l0.62655-11.5 70.273-0.52533 1.4953 3.7627c2.569 6.4646 9.542 35.126 12.107 49.763 4.9104 28.023 5.7317 34.19 5.9267 44.5l0.19852 10.5-14.394 25c-7.9169 13.75-15.17 26.125-16.118 27.5-3.6034 5.2256-41.987 72.327-41.979 73.387 4e-3 0.612 3.5878 7.3702 7.9629 15.018s7.72 14.286 7.4329 14.75-7.8708 0.84452-16.853 0.84452h-16.331l-11.966 20.5 64.246 1-0.27784 2.4736c-0.31868 2.8374-13.621 27.123-20.555 37.526-7.0809 10.624-26.646 36.901-34.861 46.822-10.458 12.628-34.082 35.402-49.805 48.012-53.704 43.072-119.84 71.573-186 80.157-24.225 3.1431-56.771 4.2643-82 2.8248zm-163.51-288.32c10.078-2.709 23.172-9.4499 31.265-16.096 22.251-18.272 33.714-53.947 29.214-90.925-4.6875-38.525-25.242-65.281-57.504-74.852-12.461-3.6968-25.094-5.3708-34.965-4.633-18.618 1.3917-29.197 4.7748-42.25 13.512-14.803 9.9082-19.487 14.911-26.184 27.969-3.2356 6.3082-6.2616 11.587-6.7245 11.732-0.46286 0.14423-3.133-3.892-5.9336-8.9695l-5.0921-9.2317-5.1579-0.30226c-2.8369-0.16624-5.1579-0.77997-5.1579-1.3638 0-0.58387 0.95817-2.7664 2.1293-4.8501l2.1293-3.7885-3.3793-5.8205c-1.8586-3.2013-3.8329-6.9577-4.3873-8.3476-1.5844-3.9722-6.782-13.019-9.0937-15.829l-2.1018-2.5545-4.2167 7.2199c-2.3192 3.971-4.844 8.7215-5.6108 10.557s-4.3894 8.454-8.0502 14.708c-11.857 20.258-26.419 45.792-26.419 46.327 0 0.28641 16.988 0.63866 37.75 0.78277l37.75 0.26203-0.24627 3.5c-0.13545 1.925-0.32229 10.7-0.41519 19.5-0.13539 12.825 0.23683 17.885 1.8759 25.5 8.4432 39.227 33.062 63.019 70.786 68.409 1.65 0.23572 9.525 0.2722 17.5 0.0811 10.818-0.25926 16.529-0.89284 22.489-2.4949zm-34.149-46.43c-8.9033-2.7845-13.562-8.8795-16.867-22.065-2.4545-9.7936-2.5289-34.12-0.13638-44.604 3.774-16.538 11.367-23.449 25.64-23.337 8.7913 0.069 14.384 2.4244 18.467 7.7769 12.023 15.763 11.215 63.499-1.2965 76.623-5.9006 6.189-16.548 8.5022-25.806 5.6066zm181.45 48.391c34.393-3.6964 58.901-22.808 64.706-50.456 4.1999-20.004-1.4881-41.094-14.119-52.352-9.087-8.0991-15.48-10.917-44.377-19.563-4.675-1.3988-9.9891-3.4621-11.809-4.5851-2.9203-1.802-3.2728-2.4799-3-5.7706 0.25917-3.1264 0.87446-4.0112 3.8091-5.4772 2.1852-1.0916 5.7972-1.749 9.615-1.75l6.115-2e-3 4.6483 8c2.5566 4.4 4.9798 7.9947 5.385 7.9881 0.40516-7e-3 2.2168-2.7065 4.0258-6 3.8665-7.039 4.7944-7.2569 14.827-3.4808 7.7288 2.9091 8.0738 2.7658 11.682-4.8551 4.8855-10.318 7.8686-21.647 8.0403-30.534l0.16187-8.3812-6.5-2.4633c-13.976-5.2965-26.238-7.4382-45.5-7.9475-16.894-0.44665-18.607-0.3193-27.871 2.0722-32.904 8.4939-50.498 30.741-48.316 61.095 1.4427 20.076 9.6099 32.444 27.687 41.929 3.575 1.8757 14.121 5.7299 23.436 8.5648 9.3148 2.835 18.198 5.8071 19.741 6.6048 6.4448 3.3327 7.3714 10.458 1.8696 14.376-6.3742 4.5388-21.091 6.2096-35.046 3.9786-3.575-0.57155-11.07-2.5932-16.655-4.4924-5.5855-1.8993-10.676-3.4533-11.313-3.4533-1.4219 0-6.0596 10.074-8.9768 19.5-2.3867 7.7116-5.1258 24.152-4.3574 26.154 1.135 2.9579 25.348 9.8866 39.302 11.247 12.461 1.2147 21.854 1.2305 32.789 0.0552zm191.97 0.03c19.704-1.7442 50.346-9.2111 51.641-12.584 1.1714-3.0527 0.83948-168.41-0.34095-169.83-2.5959-3.1279-37.072-4.9132-50.558-2.6181-3.6058 0.61367-6.5339 1.7248-7.338 2.7846-1.1024 1.453-1.2129 13.052-0.62751 65.879 0.58253 52.568 0.47307 64.262-0.60776 64.93-0.72503 0.4481-6.0676 0.80186-11.872 0.78615-15.309-0.0414-20.853-2.7868-24.974-12.368-3.2165-7.4769-3.8777-19.48-3.8984-70.764-0.0132-32.817-0.35486-47.704-1.1158-48.621-1.4466-1.7431-16.182-3.5792-28.724-3.5792-11.479 0-26.217 1.7242-28.161 3.2944-1.0747 0.8682-1.2407 12.03-0.89443 60.136 0.36046 50.077 0.67268 60.095 2.0508 65.803 5.7838 23.957 17.606 40.271 35.4 48.85 15.855 7.6434 40.954 10.476 70.022 7.9034zm136.72-2.1112c2.7404-0.50135 5.5688-1.4978 6.2853-2.2144 2.0954-2.0954 3.3845-26.917 2.1836-42.043-1.1077-13.952-1.8348-16.328-5.2303-17.096-4.966-1.1228-19.616-2.5215-26.409-2.5215-9.7977 0-26.98 2.0257-28.767 3.3915-2.4045 1.8378-3.8482 17.379-3.259 35.083 0.54946 16.51 1.6784 22.914 4.2103 23.886 1.8195 0.6982 16.163 2.5216 23.504 2.988 7.0636 0.44873 21.087-0.30286 27.482-1.473zm-143.7-219.02c-0.70685-1.1806-2.2818-3.7681-3.4999-5.75-1.2181-1.9819-2.9239-4.9534-3.7906-6.6034-0.86674-1.65-2.5701-4.6694-3.7852-6.7098s-4.1335-7.1029-6.4852-11.25c-4.4156-7.7865-5.5543-8.7848-6.6048-5.7902-0.33764 0.9625-1.7114 3.55-3.0529 5.75-1.3414 2.2-3.8079 6.475-5.481 9.5-3.4515 6.2402-7.752 13.736-11.044 19.25l-2.2389 3.75h47.268zm-96.382-109.7c0.61926-1.002-43.45-77.391-44.903-77.835-1.256-0.38383-45.706 76.537-44.942 77.772 0.71206 1.1521 89.134 1.2139 89.846 0.0627zm-174.53-3.4062c-3.1588-5.9524-19.157-33.364-19.958-34.196-1.0714-1.1131-2.4827 0.62231-5.9138 7.2716-1.3267 2.571-5.4704 9.9838-9.2083 16.473-3.7379 6.4891-6.7962 12.002-6.7962 12.25 0 0.24843 9.6908 0.4517 21.535 0.4517h21.535zm307.85-51.702c-0.94189-3.6018-13.959-25.136-14.987-24.793-0.55884 0.18628-4.0719 5.9427-7.8068 12.792l-6.7907 12.453 7.1808 0.56984c3.9495 0.31341 10.721 0.65091 15.047 0.75 7.3526 0.16839 7.8333 0.0526 7.3562-1.7718z" fill="#f56ca9"/>
    <path d="m576 889.25c0-1.0004-3.2831-6.8116-29.234-51.745-6.353-11-14.92-25.85-19.038-33l-7.4872-13-27.072-0.5c-17.984-0.33215-27.447-0.87521-28.188-1.6177-0.82156-0.82287 2.4756-7.3436 12.5-24.721l13.616-23.603-9.7983-17.014c-5.389-9.3574-10.103-17.02-10.476-17.029-0.89228-0.0203-3.2058 3.8731-32.376 54.485-65.728 114.04-62.109 107.98-64.657 108.3-2.9707 0.36902-27.707-10.524-43.664-19.229-13.551-7.392-29.064-16.996-37.126-22.983l-5.5-4.0851 26.317-0.26673c24.835-0.25171 26.299-0.36944 26-2.0896-0.63524-3.6486-44.309-78.165-45.659-77.904-0.73807 0.14288-8.6131 12.954-17.5 28.468-8.8869 15.515-16.761 28.227-17.498 28.25-2.3123 0.0719-16.968-13.873-30.433-28.958-49.999-56.012-80.224-116.89-94.084-189.5-7.8771-41.268-8.2707-92.878-1.0104-132.5 0.85664-4.675 1.8787-10.316 2.2712-12.537 1.1639-6.5829 0.86534-6.4634 16.155-6.4634 11.841 0 13.941 0.23024 13.941 1.5286 0 0.84072-7.6706 14.8-17.046 31.022-9.3752 16.221-16.774 29.933-16.441 30.471 0.37707 0.61011 14.854 0.9785 38.452 0.9785h37.847l-0.54854 15.807c-0.85699 24.696 3.2322 43.948 12.949 60.964 16.052 28.112 47.905 42.929 84.32 39.225 46.247-4.7043 73.926-35.543 77.278-86.099 3.564-53.755-21.961-92.262-67.211-101.39-8.948-1.8054-11.209-2.6299-12.623-4.6028-0.94744-1.3219-12.969-21.978-26.714-45.903-13.745-23.925-27.59-48-30.766-53.5-30.042-52.022-28.769-49.625-27.55-51.866 3.6797-6.7632 34.138-37.241 50.553-50.586 15.012-12.204 35.448-26.828 43.172-30.892 2.0649-1.0867 2.7739-0.0966 14.395 20.1 20.84 36.219 21.482 37.243 23.347 37.243 1.2538 0 8.402-11.501 25.17-40.496 12.88-22.273 23.269-40.948 23.086-41.5-0.19559-0.5899-7.105-1.2103-16.751-1.504-18.164-0.55317-18-0.31423-3.9184-5.6914 33.195-12.676 67.867-20.274 108.5-23.777 28.626-2.4678 71.844 0.27978 102.17 6.4954 42.561 8.7234 84.624 25.194 121.83 47.707 4.95 2.9951 9.4014 5.8291 9.8921 6.2979 0.51234 0.48952-5.7665 12.358-14.75 27.881-8.6031 14.866-15.642 27.544-15.642 28.172 0 0.9775-9.3019 17.369-36.27 63.914-3.0274 5.225-6.1175 9.6131-6.867 9.7512-1.3989 0.25791-29.107-46.943-30.38-51.751-0.87546-3.3084-7.6677-14.25-9.1436-14.73-1.2766-0.41477-11.34 15.979-11.34 18.474 0 2.1156-31.681 57.123-34.704 60.256-3.0762 3.1886-16.411 26.156-15.963 27.493 0.22176 0.66145 13.261 0.87264 38.002 0.61551 33.661-0.34983 37.665-0.22523 37.665 1.1722 0 0.85998-3.5774 7.7532-7.9497 15.318s-7.7208 14.125-7.441 14.578c0.27977 0.4527 11.47 0.82308 24.868 0.82308 23.215 0 27.523 0.30229 27.523 1.9314 0 0.39458-4.8375 9.0477-10.75 19.229s-15.7 27.089-21.75 37.572l-11 19.061-0.5-21.349c-0.28558-12.194-0.92883-21.774-1.5-22.341-1.8474-1.8317-14.888-3.3176-29-3.3043-16.402 0.0154-27.415 1.5144-29.31 3.9895-1.0564 1.3795-1.2304 12.664-0.89726 58.211 0.38223 52.266 0.56674 57.214 2.4623 66.028 5.9953 27.878 20.954 46.179 44.079 53.927 20.574 6.8937 58.187 6.9583 88.666 0.15238 11.811-2.6375 22.709-5.9953 24.167-7.4464 0.84097-0.83709 1.3679-15.895 1.8864-53.912l0.71954-52.75h3.3636c1.85 0 3.3636-0.19928 3.3636-0.44284 0-0.79204-4.3019-8.0081-5.8848-9.8713-1.2722-1.4975-1.635-6.4594-2.0782-28.43l-0.53696-26.616-3-0.80726c-1.65-0.444-8.625-1.2665-15.5-1.8279s-12.633-1.3546-12.796-1.7629c-0.16301-0.40825-4.4863-7.9423-9.6074-16.742-7.9167-13.604-9.6688-16-11.7-16-2.0172 0-3.5896-2.0893-10.098-13.417-4.24-7.3794-7.4775-13.792-7.1944-14.25 0.28311-0.45808 5.6366-0.83287 11.897-0.83287s11.602-0.35624 11.871-0.79165c0.2691-0.43541-3.5172-7.7375-8.4141-16.227-5.1617-8.9486-8.5316-15.807-8.0187-16.32 1.1375-1.1375 177.06 0.30744 177.06 1.4543 0 0.46691-1.7069 3.6694-3.793 7.1166-2.0862 3.4472-6.4155 10.892-9.6207 16.544-4.8589 8.5678-6.0183 10.015-6.9746 8.7075-3.8754-5.2999-59.368-5.0973-63.791 0.23287-0.77261 0.93093-0.75931 16.574 0.0468 55.042 0.61938 29.558 1.3842 66.792 1.6995 82.742 0.31537 15.95 0.783 29.743 1.0392 30.651 0.59171 2.0968 2.2771 2.4957 16.736 3.961 9.2612 0.93852 14.587 0.93389 24.438-0.0212 6.9278-0.67172 13.346-1.6229 14.264-2.1138 2.3094-1.2359 2.7103-6.6179 2.9016-38.954 0.0894-15.112 0.57516-33.112 1.0794-40 0.50424-6.8877 0.92992-22.734 0.94596-35.214 0.016-12.48 0.36667-22.896 0.77917-23.146s16.269-0.61405 35.236-0.80902l34.486-0.35448 1.2246 2.5548c1.282 2.6746 6.8375 23.881 9.7579 37.249 1.4612 6.6883 3.1446 16.092 7.5541 42.197 0.46451 2.75 0.87362 9.275 0.90914 14.5l0.0646 9.5-14.813 25.724c-8.1473 14.148-15.499 26.523-16.337 27.5-0.83781 0.97668-10.382 17.145-21.209 35.929-10.827 18.784-20.315 34.675-21.085 35.314-1.1438 0.94926-2.4361-0.63058-7.078-8.6527-3.1233-5.3977-6.5052-11-7.5154-12.449-1.6611-2.3832-1.7804-4.1521-1.2476-18.5 0.63627-17.135-0.93901-35.489-3.2074-37.372-3.652-3.0309-46.134-3.8168-55.629-1.0291-4.3945 1.2902-4.4725 1.5316-6.0437 18.703-0.93928 10.265-0.93955 15.711-1e-3 24.713 1.859 17.834 2.1032 18.15 14.76 19.102 4.3576 0.32787 10.276 0.83487 13.152 1.1267l5.2287 0.53055-1.8823 2.6807c-1.0353 1.4744-6.2097 10.473-11.499 19.997-5.2891 9.5237-10.329 18.404-11.201 19.734l-1.5842 2.4178 27.341 0.26626c24.1 0.2347 27.377 0.45535 27.648 1.8616 0.16876 0.87747-2.1878 5.9161-5.2367 11.197-3.0492 5.2808-5.5438 9.8504-5.5438 10.155 0 0.30415 14.625 0.55301 32.5 0.55301 30.336 0 32.5 0.11699 32.5 1.7572 0 4.2171-24.093 45.243-26.569 45.243-0.76465 0-2.3086-1.8-3.4309-4s-2.2173-4-2.4332-4c-0.48909 0-19.785 33.541-19.948 34.675-0.0653 0.45396 0.89378 0.96918 2.1313 1.1449 4.3872 0.62308 3.0185 2.7032-14.209 21.595-20.548 22.532-50.679 47.377-78.041 64.348-30.157 18.704-74.261 37.312-109.5 46.198-17.146 4.3238-30 6.1598-30 4.2852zm158-93.86c0-0.33778-5.3741-9.9003-11.942-21.25s-19.542-33.886-28.831-50.08c-9.2888-16.194-17.302-29.578-17.808-29.742-0.50542-0.16387-1.9847 1.6108-3.2873 3.9437-5.9386 10.636-19.387 33.886-29.639 51.242-16.214 27.449-26.493 45.268-26.493 45.926 0 0.31552 26.55 0.57368 59 0.57368s59-0.27636 59-0.61414zm-464-134.3c0-0.50183-7.2471-13.439-16.105-28.75-8.8576-15.311-18.87-32.658-22.25-38.55-3.3799-5.892-6.5953-10.725-7.1453-10.739-0.55-0.0146-2.8673 3.2312-5.1496 7.2128-2.2823 3.9817-12.295 21.343-22.25 38.58-9.9552 17.237-18.1 31.75-18.1 32.25 0 0.53244 18.858 0.90932 45.5 0.90932 26.755 0 45.5-0.3759 45.5-0.91241zm213.02-53.933c21.058-5.7732 37.178-17.489 45.283-32.914 5.1218-9.7468 6.829-16.948 6.8133-28.74-0.0224-16.816-4.5576-28.953-14.482-38.759-7.4798-7.3904-17.2-12.109-37.494-18.201-19.689-5.9103-23.141-7.624-23.141-11.489 0-1.5995 0.69018-3.5984 1.5337-4.442 1.9817-1.9817 7.857-3.5965 13.111-3.6035 3.9825-5e-3 4.252 0.1987 6.8666 5.199 3.857 7.3763 7.3785 12.795 8.3149 12.795 0.44084 0 2.5727-3.1489 4.7374-6.9976 2.1648-3.8487 4.4937-6.9987 5.1754-7 0.68171-1e-3 4.1442 1.1604 7.6943 2.5816 3.5502 1.4212 7.2674 2.4337 8.2605 2.25 5.0293-0.93041 16.025-35.846 13.925-44.215-0.68925-2.7462-7.3355-5.6478-20.705-9.0392-33.431-8.4805-65.917-4.7441-86.509 9.9499-14.947 10.666-22.423 25.729-22.391 45.114 0.0499 29.883 14.192 45.246 51.485 55.931 21.413 6.135 24.5 7.8943 24.5 13.961 0 6.1537-6.7982 9.5387-21 10.456-12.339 0.79733-20.359-0.35799-33.807-4.87-5.1188-1.7174-10.126-3.1226-11.127-3.1226-4.9701 0-16.801 42-13.09 46.471 1.597 1.9242 20.747 7.9933 31.524 9.9904 12.104 2.243 44.395 1.4687 54.521-1.3075zm-97.554-330.15c-0.0486-3.6657-21.242-40-23.332-40-1.6079 0-7.0852 8.757-8.5816 13.72-0.36814 1.221-3.5683 7.2078-7.1115 13.304s-6.4421 11.735-6.4421 12.53c0 1.1878 2.455 1.4586 13.75 1.5163 7.5625 0.0387 14.65 0.46624 15.75 0.9502 1.1 0.48395 5.15 0.78982 9 0.67971 6.7564-0.19323 6.9988-0.28719 6.9669-2.7002zm171.95 2.393c0.86999-0.33384 1.5818-0.95728 1.5818-1.3854 0-0.68965-40.857-71.895-44.684-77.873-1.2741-1.9908-1.7242-2.1492-2.8415-1-2.9759 3.061-45.578 78.153-45.078 79.456 0.45398 1.1831 7.6745 1.4092 44.99 1.4092 24.447 0 45.161-0.27314 46.031-0.60699zm135.4-54.65c0.18424-0.96624-3.1307-7.8526-7.3665-15.303-9.062-15.939-9.9073-16.33-14.802-6.8454-1.73 3.3522-3.6156 7.1772-4.1901 8.5-0.57454 1.3228-2.3619 4.7428-3.9719 7.5999-1.61 2.8571-2.567 5.5571-2.1267 6 0.91623 0.92157 16.006 2.0399 25.633 1.8998 5.3514-0.0779 6.5484-0.40265 6.8246-1.8513zm-407.31 334.75c-7.7783-2.7503-13.202-11.768-15.465-25.711-1.475-9.0895-1.2395-30.159 0.42497-38.013 3.8374-18.108 10.542-24.729 25.04-24.729 16.784 0 24.269 9.8013 26.422 34.598 1.115 12.84-0.13592 28.6-2.9751 37.484-3.9579 12.384-10.999 17.849-22.947 17.808-3.575-0.0121-8.3-0.6584-10.5-1.4363zm342.63-2.9788c-5.829-1.8404-9.6557-5.709-12.319-12.453-1.9946-5.0518-2.2342-7.7583-2.5951-29.316l-0.39754-23.75h40.211l-0.52696 66.5-10 0.19988c-6.2705 0.12534-11.631-0.31506-14.373-1.1808zm-417.88-90.997c-2.3375-4.1014-4.25-8.1466-4.25-8.9894 0-1.263 1.5834-1.5323 9.01-1.5323h9.01l-4.5201 9c-2.486 4.95-4.6281 8.9952-4.76 8.9894-0.13198-6e-3 -2.1525-3.3663-4.49-7.4677zm17.802-27.241c-1.7038-3.1458-2.8767-6.2958-2.6065-7 0.36335-0.94688 3.6907-1.2722 12.773-1.2488l12.281 0.0316-2.6415 2.2184c-6.751 5.6697-14.88 11.718-15.749 11.718-0.52783 0-2.3537-2.5738-4.0575-5.7196zm-33.965-0.77977c-1.7339-3.0723-2.8863-6.0168-2.5609-6.5434 0.79797-1.2912 12.19-1.2259 12.993 0.0744 0.71519 1.1572-4.6194 11.168-6.2389 11.708-0.57244 0.19081-2.4595-2.1668-4.1934-5.2391z" fill="#f269a6"/>
    <path d="m551.25 842.83c-14.985-26.034-28.141-48.797-29.235-50.585l-1.989-3.25h-27.015c-14.858 0-27.015-0.36932-27.015-0.82071s5.845-10.914 12.989-23.25 12.994-22.943 13-23.57c0.0198-2.0439-20.111-36.36-21.317-36.338-0.64467 0.0116-5.7351 7.9991-11.312 17.75s-24.188 42.029-41.357 71.729-33.981 58.832-37.36 64.739-6.6853 10.744-7.3482 10.75c-1.747 0.0165-21.05-8.3456-32.319-14.001-19.027-9.5484-51.975-29.883-51.975-32.077 0-0.52353 11.044-0.91015 26-0.91015 19.192 0 26-0.3065 26-1.1706 0-0.6438-10.231-18.881-22.735-40.528-15.251-26.402-23.214-39.265-24.19-39.077-0.80063 0.15418-8.9075 13.215-18.015 29.023-9.1078 15.809-16.96 28.745-17.45 28.748-1.3712 8e-3 -19.623-18.187-30.94-30.844-53.412-59.733-85.53-129.79-96.352-210.15-1.4477-10.751-1.8179-20.22-1.8179-46.5 0-34.467 0.92607-46.061 5.5772-69.824 1.0575-5.4029 1.9228-10.015 1.9228-10.25s6.3-0.42649 14-0.42649 14 0.27652 14 0.61449c0 0.33798-7.0526 12.825-15.673 27.75-8.6199 14.925-16.251 28.237-16.959 29.583-2.6273 4.9994-2.2174 5.0527 38.842 5.0527h37.965l-0.73959 4.25c-0.40678 2.3375-0.71369 10.325-0.68203 17.75 0.19475 45.674 21.534 78.446 58.508 89.856 16.693 5.1512 42.614 4.9936 59.568-0.36213 26.697-8.4334 47.237-31.48 54.166-60.777 10.047-42.476-1.1449-85.748-27.629-106.82-9.4711-7.5364-21.676-13.382-33.233-15.917-5.2993-1.1625-10.535-2.3106-11.635-2.5514-1.408-0.30821-6.8837-9.0233-18.5-29.445-9.075-15.954-28.756-50.264-43.735-76.244s-27.242-47.462-27.25-47.737c-8e-3 -0.27516 5.3385-6.3939 11.882-13.597 13.513-14.877 30.947-30.889 48.856-44.873 11.464-8.9513 32.601-23.53 34.115-23.53 0.37224 0 3.335 4.6125 6.5839 10.25 21.352 37.05 27.028 46.532 29.624 49.489 1.6083 1.8317 2.9242 4.3863 2.9242 5.6768 0 1.2905-2.9226 7.4623-6.4946 13.715s-6.4971 12.156-6.5 13.119c-5e-3 1.5854 1.3406 1.75 14.304 1.75 9.9398 0 14.79 0.38168 15.885 1.25 0.8669 0.6875 5.2755 7.6654 9.7969 15.506s8.5721 14.474 9.0016 14.739c1.2064 0.74558 1.6419 0.0495 21.273-33.995 25.153-43.621 31.449-54.524 50.386-87.259 9.5442-16.498 16.348-29.327 16.348-30.826 0-1.4116 2.5875-7.0414 5.75-12.511 9.3227-16.123 8.8439-14.326 3.9751-14.92-6.6759-0.81462 12.023-2.0169 28.178-1.8118 9.8108 0.12454 11.88 0.33336 7.4306 0.75l-6.1658 0.5774 3.398 5.5c1.8689 3.025 3.8202 6.4474 4.3361 7.6054 0.51594 1.158 2.324 4.3577 4.0178 7.1106 1.6938 2.7528 3.0797 6.2626 3.0797 7.7994 0 1.7718 4.8118 11.062 13.15 25.389l13.15 22.595-2.65 4.7505c-1.4575 2.6128-2.65 4.9753-2.65 5.25s3.0375 0.4998 6.75 0.50019c6.288 6.5e-4 6.7603 0.15467 6.9002 2.25 0.0826 1.2371 5.8686 12.149 12.858 24.249 16.61 28.757 16.45 28.447 15.737 30.304-1.0359 2.6996-30.449 53.582-32.051 55.446-1.4089 1.6392-6.4999 1.75-80.381 1.75-65.361 0-78.965 0.23172-79.395 1.3523-0.28541 0.74375 6.0814 12.781 14.148 26.75 8.0671 13.969 19.086 33.049 24.487 42.401s10.101 17.737 10.445 18.634c0.50396 1.3133-0.79523 2.0594-6.6869 3.8404-11.463 3.465-19.487 7.9368-27.291 15.21-10.896 10.155-15.772 20.738-17.077 37.07-0.7809 9.7694 1.8764 22.886 6.273 30.964 5.8091 10.673 20.292 20.867 36.783 25.89 28.798 8.7712 33.5 10.964 33.5 15.621 0 2.8724-2.7709 6.102-7.3161 8.5272-3.8048 2.0301-5.5432 2.2294-19.184 2.1992l-15-0.0332-12.406-4.2706c-10.155-3.4957-12.63-4.0332-13.642-2.9626-4.4387 4.6996-12.89 34.499-12.252 43.204l0.30036 4.104 11 3.6487c14.81 4.9127 28.08 7.021 44.5 7.0705 31.421 0.0948 49.659-5.9349 65.627-21.697 12.827-12.662 17.742-24.396 17.809-42.522 0.0665-17.894-3.8454-28.546-14.36-39.102-8.1927-8.2246-17.87-13.047-37.576-18.724-17.569-5.0617-21.299-6.6395-22.637-9.5755-1.3194-2.8958 0.24617-6.3118 3.4477-7.5225 3.4754-1.3143 12.086-2.1886 13.248-1.3451 0.58236 0.42281 2.7826 3.9187 4.8895 7.7687 4.0176 7.3417 6.3225 10.5 7.6625 10.5 0.44049 0 2.6406-3.15 4.8891-7s4.7331-7 5.5213-7 4.4582 1.1387 8.1556 2.5304c3.6974 1.3917 7.3341 2.2957 8.0815 2.0089 3.7732-1.4479 12.013-26.387 12.934-39.143l0.58456-8.104-3.1828-1.1095c-3.7836-1.319-4.4207 0.33366 8.2545-21.411 4.5754-7.8492 12.291-21.246 17.145-29.771s9.5153-16.062 10.358-16.75c1.1419-0.9321 8.4766-1.25 28.84-1.25 15.02 0 27.307 0.3375 27.305 0.75-2e-3 0.4125-3.6019 6.9725-8 14.578s-7.9965 14.468-7.9965 15.25c0 1.1923 4.1124 1.4222 25.441 1.4222 13.993 0 25.662 0.35811 25.933 0.7958 0.2705 0.43768-8.8154 16.937-20.191 36.664l-20.683 35.868-0.27063-20.14c-0.24063-17.908-0.46229-20.24-2-21.042-2.4293-1.2672-19.587-3.1462-28.729-3.1462-9.1774 0-26.304 1.8808-28.75 3.1572-1.6343 0.85276-1.7488 4.4985-1.7317 55.128 0.0197 58.454 0.57632 67.064 5.2954 81.925 7.3673 23.2 23.779 38.804 47.08 44.763 25.39 6.4936 69.062 3.8109 100.61-6.18l7.5-2.3755 0.61994-26.459c0.34097-14.552 0.67847-38.271 0.75-52.709l0.13006-26.25h4.0314c2.421 0 4.2342-0.52842 4.539-1.3228 0.27918-0.72755-1.5349-4.9549-4.0314-9.3941l-4.539-8.0713v-48.261l-2.3014-0.87498c-2.7306-1.0382-18.51-3.0581-24.199-3.0977l-4-0.0278-8-14.045c-12.737-22.362-13.362-23.264-15.102-21.82-1.2044 0.99957-1.7506 0.96613-2.7816-0.17026-1.8625-2.0532-13.617-22.673-13.617-23.887 0-0.64611 4.4534-1.0274 12-1.0274 10.188 0 12-0.23479 12-1.5548 0-0.85511-3.5754-7.7176-7.9453-15.25s-8.2431-14.483-8.607-15.445c-0.62358-1.6493 1.7187-1.7491 40.695-1.7347 22.746 8e-3 41.861 0.34592 42.477 0.75 1.3165 0.86362 17.81 29.172 17.257 29.618-0.20713 0.16684-2.4016 0.71289-4.8766 1.2134l-4.5 0.91011-0.27928 16.996c-0.1536 9.3481 0.38183 47.553 1.1898 84.901 1.1496 53.135 1.7541 68.182 2.7793 69.18 4.7122 4.5877 51.734 4.3495 56.369-0.28553 1.1442-1.1442 1.4695-5.3918 1.5789-20.62 0.0758-10.548 0.4133-28.404 0.75-39.679l0.61217-20.5 10.749 18.5h77.518l0.60745 2.25c0.33411 1.2375 0.8769 7.875 1.2062 14.75l0.59874 12.5-14.947 25.784c-8.2209 14.181-15.855 26.781-16.965 28-1.11 1.2188-10.893 17.628-21.74 36.465-10.847 18.837-20.099 34.016-20.56 33.73-0.4614-0.28516-3.9938-6.0342-7.8499-12.776l-7.011-12.257 0.0408-17.473c0.039-16.711-1.2998-31.527-3.003-33.23-4.5812-4.5812-58.71-3.9207-60.498 0.73818-1.526 3.9768-2.8479 23.508-2.369 35.003 0.62196 14.93 2.1572 23.15 4.5586 24.408 1.9763 1.0358 16.858 3.1067 22.324 3.1067 2.1126 0 3.841 0.18937 3.841 0.42082s-2.475 4.7076-5.5 9.947c-3.025 5.2394-5.5021 9.8875-5.5046 10.329-3e-3 0.44165-2.9276 5.952-6.5 12.245-3.5724 6.2933-6.4953 12.079-6.4953 12.857 0 1.194 4.2512 1.3592 27.228 1.0577 24.568-0.32233 27.259-0.19766 27.551 1.276 0.17762 0.89828-1.9499 5.4813-4.7279 10.184s-5.0508 9.2557-5.0508 10.117c0 1.3886 3.6734 1.5655 32.5 1.5655 17.875 0 32.5 0.27746 32.5 0.61658 0 0.33911-2.7071 5.8516-6.0158 12.25-8.1636 15.787-18.178 31.633-19.992 31.633-0.81857 0-2.3892-1.6863-3.4902-3.7473-1.1011-2.061-2.4606-3.7485-3.0211-3.75-0.88417-2e-3 -3.4574 4.0055-9.4965 14.791-0.8336 1.4887-3.8711 6.8102-6.75 11.825-2.8789 5.0153-5.2344 9.6278-5.2344 10.25s1.35 1.1313 3 1.1313 3 0.29115 3 0.64701c0 2.0948-22.306 26.204-35.833 38.73-26.674 24.7-53.077 43.355-82.268 58.13-24.16 12.228-38.525 18.267-65.898 27.704-7.8077 2.6918-36.549 9.7208-42.5 10.394l-5 0.56547zm163.61-45.834c19.955-1e-3 20.356-0.0422 19.837-2.0256-0.29115-1.1133-8.3606-15.626-17.932-32.25-9.5716-16.624-21.599-37.647-26.728-46.718-11.237-19.874-13.806-24.007-14.92-24.007-0.46785 0-6.1558 9.3375-12.64 20.75s-13.583 23.9-15.775 27.75c-2.1919 3.85-4.7752 7.9-5.7405 9-3.832 4.3666-27.161 46.381-26.42 47.58 0.5996 0.97017 9.3659 1.0963 40.358 0.58082 21.776-0.36221 48.757-0.65918 59.959-0.65993zm-443.87-135.6c0-1.341-8.438-16.272-41.897-74.134-1.9816-3.427-4.0543-6.2395-4.606-6.25-0.55167-0.0105-6.0136 8.6433-12.138 19.231s-16.36 28.283-22.747 39.324-11.612 20.828-11.612 21.75c0 1.5435 3.6674 1.6756 46.5 1.6756 41.917 0 46.5-0.15736 46.5-1.5966zm288.51-382.41c0.56452-0.9134-8.1706-16.522-36.259-64.789-6.6159-11.369-9.9591-16.209-11.05-15.999-2.2921 0.44141-47.789 79.034-46.738 80.735 0.89115 1.4419 93.156 1.494 94.047 0.0531zm-272.87 280.61c-11.1-4.133-16.311-15.904-17.308-39.096-1.0069-23.432 3.9147-40.629 13.182-46.06 5.4257-3.1797 13.437-4.1318 20.502-2.4368 13.686 3.2832 19.843 19.304 18.717 48.7-0.82432 21.513-5.0692 32.876-13.982 37.427-5.3923 2.7535-15.727 3.4713-21.112 1.4663zm343.21-2.9843c-6.8918-1.8563-9.7628-4.183-12.477-10.111-3.1037-6.7794-4.3546-17.599-4.3643-37.751l-0.00759-15.75h40v63.75l-3.125 0.625c-4.9359 0.98718-14.945 0.60591-20.026-0.76286zm-419.14-91.95c-2.0393-3.4861-3.7078-6.8611-3.7078-7.5 0-0.78639 2.6112-1.1616 8.0833-1.1616 4.4458 0 7.9242 0.3375 7.7298 0.75-2.7191 5.7683-7.3736 14.25-7.82 14.25-0.31767 0-2.2461-2.8523-4.2854-6.3384zm18.834-26c-1.3982-2.3858-2.5422-4.8608-2.5422-5.5 0-0.81088 3.0981-1.1454 10.25-1.1066l10.25 0.0555-2.935 2.1944c-1.6142 1.2069-4.5938 3.6569-6.6212 5.4444s-4.1752 3.25-4.7729 3.25c-0.59765 0-2.2306-1.952-3.6288-4.3379zm-34.461-1.0302c-3.0671-4.9627-2.7203-5.632 2.9184-5.632 2.75 0 5 0.42428 5 0.94284 0 1.4712-4.1011 8.0572-5.0172 8.0572-0.45081 0-1.7564-1.5156-2.9012-3.368zm681.46-40.506c-0.51421-1.6201-1.6818-2.0979-5.8413-2.3904l-5.1986-0.3655 5.6334-0.18498c5.045-0.16566 5.6936 0.0454 6.2103 2.0214 0.73737 2.8197 0.0492 3.607-0.80377 0.91951zm-245.44-103.09c-9.9676-17.351-14.135-25.502-13.665-26.728 1.8914-4.9289 40.232-70.276 41.241-70.29 1.3703-0.0199 7.3234 9.9794 7.3234 12.301 0 0.86608-1.575 4.262-3.5 7.5465-5.1288 8.7509-4.9577 9.1353 4.0657 9.1353 4.1612 0 8.3684 0.4296 9.3495 0.95466 1.5876 0.84964 12.085 17.774 12.085 19.484 0 0.3745-7.0527 12.917-15.673 27.871s-17.94 31.128-20.71 35.94-5.2936 8.75-5.6065 8.75c-0.31291 0-7.0226-11.234-14.91-24.964zm-257.18-138.6c1.8835-0.81729 3.9085-1.2852 4.5-1.0398 0.59148 0.2454 0.17541 0.57222-0.92459 0.72627s3.4 0.54906 10 0.87781l12 0.59773-14.5 0.16199c-13.624 0.1522-14.293 0.0722-11.075-1.324zm272.08-1.0129-2.5-1.5063 2.5 0.66268c1.375 0.36447 3.175 1.0446 4 1.5113 1.3333 0.75434 1.3333 0.84807 0 0.84361-0.825-3e-3 -2.625-0.68286-4-1.5113zm-259-3.9228c4.5657-1.7582 6.3621-1.7323 2.5 0.0361-1.65 0.75553-3.675 1.3597-4.5 1.3427-0.825-0.017 0.075-0.63751 2-1.3788zm248 0c-3.117-1.7818-1.627-1.7818 3 0 2.2918 0.88256 2.8096 1.3619 1.5 1.3885-1.1 0.0224-3.125-0.60247-4.5-1.3885zm-237.5-3.5c1.1-0.47269 2.675-0.85943 3.5-0.85943 0.94548 0 0.76064 0.31771-0.5 0.85943-1.1 0.47269-2.675 0.85943-3.5 0.85943-0.94548 0-0.76064-0.31771 0.5-0.85943zm226.5 0c-1.3333-0.86167-1.3333-0.96327 0-0.9144 0.825 0.0302 2.4 0.44171 3.5 0.9144l2 0.85943-2 0.055c-1.1 0.0302-2.675-0.38124-3.5-0.9144zm-212.5-4c1.1-0.47269 2.675-0.85943 3.5-0.85943 0.94548 0 0.76064 0.31771-0.5 0.85943-1.1 0.47269-2.675 0.85943-3.5 0.85943-0.94548 0-0.76064-0.31771 0.5-0.85943zm197.64-0.1472c-1.8478-0.53175-3.1656-1.1608-2.9285-1.398s2.424 0.19402 4.8597 0.95814c4.973 1.5602 3.2922 1.943-1.9312 0.43986zm-182.14-3.8528c1.375-0.44035 3.4-0.80064 4.5-0.80064 1.5837 0 1.4796 0.16667-0.5 0.80064-1.375 0.44035-3.4 0.80064-4.5 0.80064-1.5837 0-1.4796-0.16667 0.5-0.80064zm167 0c-1.9796-0.63397-2.0837-0.80064-0.5-0.80064 1.1 0 3.125 0.36029 4.5 0.80064 1.9796 0.63397 2.0837 0.80064 0.5 0.80064-1.1 0-3.125-0.36029-4.5-0.80064zm-147.02-3.96c5.1023-1.2932 13.288-2.2142 9.8228-1.1052-1.4814 0.47408-5.0814 1.1154-8 1.4251-4.2926 0.45551-4.6409 0.39439-1.8228-0.31989zm123.52-0.51717c-6.7044-1.7233-3.5597-1.7875 4-0.0816 3.3 0.74465 4.875 1.3568 3.5 1.3604-1.375 4e-3 -4.75-0.57187-7.5-1.2787zm-96.75-3.2285c1.2375-0.23836 3.2625-0.23836 4.5 0 1.2375 0.23835 0.225 0.43337-2.25 0.43337s-3.4875-0.19502-2.25-0.43337zm73.012-2e-3c1.2439-0.23919 3.0439-0.23011 4 0.0202 0.95609 0.25029-0.0617 0.446-2.2617 0.4349-2.2-0.0111-2.9822-0.21589-1.7383-0.45508zm-11.512-1.0085c1.5125-0.22913 3.9875-0.22913 5.5 0 1.5125 0.22912 0.275 0.41659-2.75 0.41659s-4.2625-0.18747-2.75-0.41659z" fill="#ee65a2"/>
    <path d="m575.74 882.3c-38.589-66.68-52.736-91.436-52.736-92.281 0-0.65439 6.0822-1.0209 16.941-1.0209 9.3175 0 17.182-0.38988 17.476-0.86639 0.2945-0.47652-6.9477-13.864-16.094-29.75-9.1461-15.886-19.148-33.295-22.226-38.686-3.0784-5.3914-6.0366-9.8377-6.5737-9.8805-0.53708-0.0429-4.7057 6.3933-9.2637 14.303-4.5579 7.9093-8.7728 14.381-9.3665 14.381s-5.654-7.8696-11.245-17.488c-5.5912-9.6184-10.891-17.628-11.777-17.798-1.4903-0.28701-26.797 42.651-85.77 145.52-6.3808 11.131-12.172 20.243-12.87 20.25-2.3654 0.0221-28.664-12.08-41.712-19.196-16.747-9.1322-39.441-23.522-39.493-25.042-0.01419-0.4125 11.449-0.75 25.474-0.75 23.825 0 25.5-0.11741 25.5-1.788 0-1.9313-43.832-78.473-46.42-81.061-0.99688-0.99688-1.9131-1.2179-2.5222-0.60843-0.52616 0.52643-8.3563 13.782-17.4 29.457s-16.915 28.5-17.492 28.5c-1.5701 0-23.166-21.142-23.162-22.675 2e-3 -0.72869 4.4207-8.9749 9.819-18.325s18.518-32.075 29.155-50.5 22.862-39.575 27.167-47c4.3048-7.425 13.121-22.792 19.591-34.15l11.764-20.65 8.5-4.7444c6.1712-3.4445 10.979-7.2392 17.549-13.85 7.8128-7.8619 9.7551-10.541 14.215-19.606 6.1852-12.572 8.8458-22.428 10.565-39.136l1.2835-12.474 6.9436-12.168c3.819-6.6922 7.2038-12.18 7.5218-12.195 0.31804-0.0152 1.111 2.2804 1.7622 5.1013 2.7142 11.759 9.414 20.7 21.276 28.395 6.3899 4.1449 6.9134 4.8104 15.321 19.48 4.7875 8.3537 8.534 15.359 8.3254 15.568-0.90814 0.90814-14.104-1.9575-23.595-5.124-5.6831-1.896-11.214-3.4474-12.292-3.4474-3.6463 0-10.716 18.817-13.448 35.793-0.82984 5.157-1.2465 10.203-0.92601 11.213 0.72514 2.2847 13.086 6.8872 27.003 10.054 8.6518 1.9688 12.894 2.2842 31.567 2.347l21.572 0.0725 5.317 9.5106c2.9243 5.2308 6.1188 10.411 7.0988 11.511 0.98002 1.1 9.5203 15.5 18.978 32s17.534 30.45 17.945 31c0.41186 0.55 1.8645 3.025 3.2281 5.5 1.3636 2.475 7.4333 13.05 13.488 23.5s17.103 29.575 24.55 42.5c7.4476 12.925 16.664 28.9 20.482 35.5 16.678 28.835 23.12 40.001 32.024 55.5 5.213 9.075 10.115 17.227 10.894 18.115 1.2516 1.4276 1.093 1.7381-1.3668 2.6748-6.9455 2.6448-29.878 8.6074-44.907 11.676-3.0348 0.61965-3.2542 0.41384-7.6396-7.1639zm106.96-58.345c-7.59-13.192-13.526-24.43-13.191-24.972 0.37991-0.61471 12.976-0.98527 33.491-0.98527 21.282 0 33.104-0.35999 33.513-1.0204 0.34687-0.56125-7.2139-14.624-16.802-31.25-9.5878-16.626-18.302-32.033-19.364-34.238-1.0624-2.2046-6.8218-12.461-12.798-22.793-7.7104-13.328-11.329-18.699-12.458-18.49-1.3599 0.25127-14.977 23.226-29.607 49.954-2.2091 4.0358-4.6471 7.3377-5.4177 7.3377-0.77062 0-3.3942-3.375-5.8303-7.5s-4.9481-7.8306-5.5823-8.2347c-0.63421-0.40408-13.866-0.74158-29.403-0.75-16.57-9e-3 -28.25-0.39666-28.25-0.93764 0-0.50728 5.9078-11.195 13.128-23.75 7.2207-12.555 13.565-23.78 14.1-24.944 0.81506-1.7762-1.2073-5.8731-12.588-25.5-12.132-20.923-13.385-23.515-11.908-24.634 1.2245-0.92731 8.5179-1.25 28.252-1.25h26.601l3.603-6.25c1.9816-3.4375 4.3367-7.7125 5.2335-9.5 1.5772-3.1438 1.8339-3.25 7.8548-3.2508 17.055-2e-3 42.951-4.2256 59.869-9.764l8.3551-2.7352 0.5-23.5c0.33818-15.895 0.80693-22.853 1.4484-21.5 0.52162 1.1 6.3241 11.225 12.894 22.5 14.713 25.248 14.644 25.12 14.651 27.193 3e-3 0.93131 0.81594 2.2813 1.8057 3 1.8457 1.3402 14.2 22.352 14.2 24.15 0 0.54987-2.925 6.0369-6.5 12.193-3.575 6.1564-6.5 11.929-6.5 12.828 0 1.4742 2.7513 1.6348 28 1.6348 16.402 0 28 0.38155 28 0.92113 0 0.50663-2.25 4.8171-5 9.5789-5.3906 9.3341-5.8571 10.957-3.4182 11.893 0.86998 0.33385 15.495 0.60699 32.5 0.60699 20.873 0 30.918 0.34021 30.918 1.0471 0 2.7989-22.859 41.97-24.464 41.921-0.56996-0.0174-2.3001-2.1125-3.8448-4.6558-2.4135-3.9738-3.0063-4.4263-4.215-3.2177-1.5426 1.5426-7.8748 11.651-10.276 16.405-0.83357 1.65-3.9695 7.2026-6.9686 12.339-3.0061 5.1484-5.0668 9.7134-4.5922 10.173 0.47345 0.45863 2.1894 0.981 3.8132 1.1608l2.9523 0.32695-6.3576 7.5c-16.268 19.192-42.535 43.244-65.729 60.189-12.295 8.982-37.673 24.833-39.679 24.783-0.62648-0.0156-7.349-10.822-14.939-24.015zm160.78-308.16c-10.866-18.862-21.043-36.439-22.617-39.059-4.9889-8.3081-7.584-7.735 35.025-7.735h37.886l0.58566 4.25c0.32211 2.3375 0.83617 8.525 1.1423 13.75l0.55667 9.5-15.463 26.478c-8.5047 14.563-15.89 26.62-16.412 26.794-0.52165 0.17388-9.8386-15.116-20.704-33.978z" fill="#ea609d"/>
    <path d="m684.25 823.7c-7.2875-12.776-13.25-23.56-13.25-23.966 0-0.40537 14.864-0.73704 33.031-0.73704 28.342 0 33.113-0.21156 33.603-1.4902 0.33478-0.87243-6.9622-14.545-17.602-32.981-9.9957-17.32-17.96-31.837-17.699-32.26 0.75602-1.224 109.67-0.42613 109.67 0.8034 0 0.57129-2.475 5.2441-5.5 10.384-3.025 5.1399-5.5 9.7918-5.5 10.337 0 1.1843 2.3926 2.2061 5.1658 2.2061 1.7933 0 1.6543 0.44185-1.3318 4.2337-5.7536 7.3062-30.893 32.644-41.373 41.699-11.347 9.8049-26.133 21.137-37.961 29.096-10.333 6.9526-25.599 15.981-26.949 15.937-0.57824-0.0188-7.0138-10.487-14.301-23.263zm-48.608-84.282c-2.0878-3.63-3.5922-6.8038-3.3432-7.0528 0.24905-0.24904 4.1114-0.32121 8.5831-0.16036l8.1303 0.29245-3.7561 6.4249c-2.0658 3.5337-4.22 6.5758-4.7871 6.7604s-2.7392-2.6345-4.827-6.2645zm-297.64-0.57549c0-1.7667 44.052-77.845 45.075-77.845 1.2873 0 3.6205 3.8128 24.224 39.585 21.353 37.074 21.829 37.954 20.995 38.788-0.34473 0.34473-20.802 0.62678-45.46 0.62678-33.228 0-44.833-0.29891-44.833-1.1548zm457.8-46.595c-12.683-21.939-19.124-34.007-18.406-34.485 1.7281-1.1497 23.604-0.92487 23.604 0.24257 0 0.55433-2.25 4.9652-5 9.8019s-5 9.5582-5 10.492c0 1.5632 2.622 1.6981 33 1.6981 18.15 0 33 0.30063 33 0.66806 0 1.1195-12.308 23.245-18.466 33.195l-5.7947 9.3631-2.952-5.1131c-1.6236-2.8122-3.5784-5.1131-4.344-5.1131-0.76558 0-3.0743 2.925-5.1304 6.5s-4.0225 6.5-4.3696 6.5-9.4107-15.188-20.141-33.75zm-196.57-16.5c-1.1051-1.3567-25.227-42.872-25.227-43.418 0-0.18271 11.7-0.33219 26-0.33219s26 0.36141 26 0.80313c0 1.1516-24.759 44.197-25.422 44.197-0.18339 0-0.79164-0.5625-1.3517-1.25zm257.87-138.92c-3.9084-6.7793-14.021-24.251-22.473-38.826s-15.059-26.843-14.684-27.263c0.37567-0.41947 17.08-0.64447 37.12-0.5l36.437 0.26267 0.65836 4.5c0.3621 2.475 0.75678 8.1956 0.87708 12.713l0.21872 8.2125-14.294 24.787c-7.8614 13.633-14.847 25.609-15.525 26.614-1.0921 1.6201-2.0325 0.43583-8.3372-10.5z" fill="#e75e9b"/>
   </g>
  </g>
 </g>
</svg>